<svg xmlns="http://www.w3.org/2000/svg" width="90" height="48" viewBox="0 0 90 48">
  <g>
    <path d="m46.06,15.7s-.09-.07-.14-.07h0c-.08.01-.16.04-.21.06-.96.33-1.93.65-2.89.98-.05.02-.1.03-.13.04-.2.06-.21.08-.29.27-.02.04-.03.08-.06.14-.06.14-.12.29-.18.43l-.1.24s-.05.02-.07.04c-.07.03-.13.06-.18.1-.09.06-.18.12-.27.18-.05.03-.09.06-.14.09,0,0-.02.01-.04.02v-.2c0-.18,0-.35,0-.53,0-.37,0-.74-.03-1.12,0-.32-.03-.64-.05-.96,0-.16-.02-.32-.03-.47v-.14h.05l.33.02c.17.01.34.02.51.03h.22c.06.01.12-.02.17-.08.02-.03.05-.06.08-.1.66-.79,1.32-1.58,1.98-2.38l.04-.06s.02-.09,0-.12c-.02-.03-.05-.05-.09-.05h0c-.06,0-.12.02-.18.04-.88.32-1.76.64-2.64.96l-.33.12s-.05.02-.07.03c-.18.06-.21.09-.24.37,0,.1-.02.21-.04.31,0,.05,0,.11-.02.16l-.08.05c-.05.03-.1.06-.15.09l-1.03.65c-1.18.75-2.37,1.49-3.55,2.24-.34.21-.67.43-1,.65-.18.12-.37.24-.55.36,0,0-.02.02-.03.02-.03.02-.05.04-.08.04,0-.07,0-.14,0-.21,0-.15-.02-.29-.02-.44,0-.09,0-.17-.02-.26,0-.14-.02-.27-.02-.42h.06c.21.02.43,0,.67-.03.64-.08,1.11-.38,1.42-.9.08-.14.15-.27.2-.4.2-.47.31-.99.35-1.66,0-.08,0-.15-.04-.22-.14-.34-.34-.63-.59-.86-.15-.14-.32-.28-.54-.43.06,0,.12.02.17.03.26.07.51.14.74.21.42.12.91.25,1.43.29.55.05,1.05-.06,1.49-.31.28-.16.53-.35.75-.57.17-.17.34-.36.51-.54.03-.03.05-.08.04-.13,0-.06-.06-.11-.13-.11h-1.28c-.02-.07,0-.14,0-.21v-.13c0-.06,0-.11,0-.16h.04s.08.02.12.02c.06,0,.14,0,.21-.02.04-.02.08-.04.12-.07,0,0,.02-.01.03-.02.02.01.03.02.05.03.02.01.04.03.06.04l.11.08c.12.08.24.17.36.24.07.05.17.09.26.12.07.02.14.01.19-.02.06-.04.09-.1.1-.18v-.09h0s.05.03.08.04c.07.04.14.09.21.14.1.06.19.13.29.19l.04.03c.07.04.14.09.22.12.11.04.18.02.23,0,.07-.04.11-.11.13-.21v-.1s.06.05.08.07c.04.03.07.06.11.09.09.08.18.16.28.24.08.06.17.11.27.15.16.06.3.03.42-.08.02-.02.03-.03.05-.04h.02s.05.01.08.03c.08.04.16.08.24.11s.16.05.23.07c.03,0,.07.02.1.03,0,0,0,.02.02.03l.09.12c.23.21.46.35.72.44.1.03.19.05.26.05h0c.08,0,.14-.02.18-.07.04-.05.06-.12.05-.2,0-.07-.03-.14-.06-.19l-.04-.07c-.06-.11-.12-.23-.2-.33-.19-.25-.35-.44-.51-.6-.45-.48-.94-.95-1.46-1.39-.28-.24-.56-.47-.84-.7-.26-.22-.52-.43-.77-.65-1.2-1.02-2.35-1.92-3.52-2.75-.74-.53-1.5-1.06-2.23-1.57-.48-.34-.96-.67-1.44-1.01-.65-.46-1.4-.85-2.23-1.14-.69-.24-1.44-.42-2.29-.55-.59-.08-1.08-.11-1.54-.09-.24,0-.5.04-.75.1-.38.09-.7.23-.98.45-.39.31-.6.72-.61,1.22,0,.37.05.75.19,1.15.02.07.05.13.07.2.04.1.07.2.11.3.05.16.09.33.13.5.03.16.02.33-.03.5-.04.14-.11.22-.21.25-.31.09-.52.06-.7-.1-.32-.27-.7-.4-1.12-.36-.1,0-.2.02-.3.02-.08-.07-.16-.14-.24-.2l-.14-.12c0-.68-.03-.77-.43-1.19h0v-.08c0-.1-.04-.18-.11-.22-.17-.11-.39-.22-.66-.16-.07,0-.13.04-.19.06-.14.06-.26.06-.38-.02-.14-.09-.28-.08-.43.03,0,0-.02,0-.02.02-.02.02-.03.03-.05.04,0-.03.02-.05.02-.08,0-.02.02-.04.02-.06.09-.29.13-.56.11-.82-.03-.45-.24-.78-.63-.99-.16-.09-.34-.16-.57-.22-.4-.1-.84-.15-1.41-.16h-.09c-.73,0-1.46.09-2.18.27-.69.17-1.34.4-2.01.65-.61.22-1.12.52-1.55.91-.25.22-.54.44-.9.66-.27.17-.57.34-.93.55-1.4.8-2.67,1.74-3.77,2.77-.17.15-.33.31-.5.47-.12.11-.24.22-.35.33l-.15.14c-.26.24-.52.48-.79.72-.46.4-.95.78-1.43,1.14l-.27.2c-.33.25-.57.45-.8.64-.43.36-.79.83-1.09,1.44-.02.05-.04.1-.05.15,0,.04,0,.08.02.11s.06.06.1.06c.05,0,.09.01.14.01.24-.01.44-.08.6-.21.25-.21.54-.39.89-.55.03-.01.06-.03.09-.05.02-.01.04-.02.06-.03,0,0,0,0,.02-.01h.02v.02s0,.08.02.12c.03.13.12.19.26.17.06-.01.11-.03.15-.06.06-.03.11-.07.16-.11l.26-.21c.1-.08.2-.16.3-.24h0s0,.05,0,.07c0,.11,0,.2.08.25.06.06.15.08.25.06.11-.02.22-.06.29-.09.27-.11.51-.27.69-.39.03-.02.06-.03.09-.05v.05c0,.06,0,.12.05.16.04.03.1.03.15.02.3-.06.54-.17.72-.35l.02-.03s.04-.04.06-.06c0,0,0,0,.02.01.13.15.22.18.4.12.06-.02.12-.05.16-.08l.18-.12s.07-.05.1-.07c0,0,.03-.02.04-.03.02-.02.05-.04.08-.05.03.1.05.2.07.3l.02.09s.02.09.03.13c.02.09.04.17.04.26h-1.05c-.06,0-.1.04-.13.08-.03.05-.03.1,0,.15.02.04.05.09.07.12.29.38.6.67.95.89.28.18.55.28.83.32.27.03.51.03.74-.02.35-.07.7-.14.98-.21.08-.02.16-.04.24-.06.29-.07.58-.14.88-.18.09-.01.17-.02.25-.01-.02.03-.03.05-.05.06-.13.13-.27.25-.41.37-.06.05-.12.11-.18.16-.07.06-.13.11-.2.17-.3.28-.46.63-.45,1.05,0,.51.11.99.33,1.42.21.41.51.71.92.92.25.12.52.22.83.29.13.03.26.05.39.08h.03c-.02.24-.04.47-.06.71l-.03.41-.03-.02c-.05-.03-.1-.05-.14-.08-1.29-.71-2.59-1.5-3.85-2.34-.46-.3-.92-.62-1.36-.92-.3-.2-.59-.41-.89-.61-.09-.06-.14-.13-.16-.22-.02-.06-.04-.12-.06-.18s-.05-.13-.07-.2c-.04-.12-.11-.2-.23-.23-.02,0-.04,0-.05-.02l-.51-.18c-.7-.24-1.41-.49-2.12-.74h-.04s-.06-.03-.09-.04c-.03,0-.08-.01-.12,0-.06,0-.1.04-.12.09-.02.05-.02.1,0,.15.02.04.05.07.08.1l.02.02c.19.24.38.47.58.71.41.5.81,1,1.21,1.5.1.12.2.17.35.15.24-.02.48-.03.71-.05h.21c0,.28-.02.56-.04.81-.02.28-.03.55-.04.82v.26c0,.19,0,.39-.02.58,0,.11,0,.22-.02.33,0,.15,0,.3-.02.45-.03-.01-.05-.02-.07-.03-.07-.04-.13-.08-.19-.12-.09-.06-.18-.12-.28-.17-.08-.05-.12-.11-.14-.2-.03-.14-.07-.28-.1-.42l-.04-.14c-.02-.09-.08-.15-.17-.18-.14-.05-.28-.1-.42-.15l-.4-.15c-.84-.32-1.68-.65-2.53-.97h-.03c-.05-.03-.11-.05-.16-.06-.04,0-.09,0-.12.05-.03.04-.04.1-.02.14.03.05.06.09.1.14.21.25.43.51.64.76.5.6,1.02,1.21,1.53,1.82.1.11.2.16.35.16h.9s.08,0,.12.01h.03v.1c-.02.25-.04.49-.06.74-.03.36-.06.73-.09,1.09-.07.9-.1,1.82-.11,2.74,0,.97.03,1.97.11,2.99.06.82.16,1.63.28,2.41.22,1.4.56,2.82,1.01,4.22.35,1.09.75,2.02,1.2,2.84.78,1.42,1.82,2.62,3.1,3.54,1.34.97,2.82,1.53,4.4,1.65.79.06,1.59,0,2.37-.21.74-.19,1.47-.48,2.22-.89.22-.12.93-.6,1.04-.66.03-.02.06-.03.09-.05h0s-.02.08-.03.11c-.03.09-.32.94-.42,1.21-.31.88-.75,1.76-1.39,2.78-.02.03-.04.06-.06.09l-.03.05s-.03.06-.04.09c0,.04,0,.08.02.11s.06.05.09.05h.09c.33,0,.7-.02,1.06.03.02,0,.05,0,.07,0,.08,0,.15.02.22.05,0,.09,0,.17-.02.25v.08c0,.12-.03.24-.04.36-.02.16-.04.32-.06.47-.03.26.07.44.31.53.09.04.2.07.32.09.2.03.4.04.59.02h.17v.3c0,.14,0,.28,0,.42.02.29.18.49.47.58h.03s.09.03.14.04c.37.07.73.09,1.07.1h.14c.34,0,.64-.04.91-.11.12-.03.23-.08.35-.13.16-.08.27-.22.32-.4.02-.08.03-.16.04-.26,0-.2-.03-.39-.07-.55,0-.02,0-.05,0-.08v-.02h.02s.05-.02.07-.02c.12,0,.24,0,.36.02.07,0,.14.02.22.04.07,0,.15.03.23.04.26.04.42-.07.49-.33.02-.08.04-.17.04-.26,0-.28-.03-.57-.16-.95-.02-.06-.04-.12-.06-.18.07-.03.14-.03.21-.03h.02l1.17-.06c.05,0,.11,0,.18-.02.06,0,.11-.05.12-.1s0-.09-.05-.13-.08-.09-.12-.15c-.05-.08-.09-.16-.14-.24-.12-.2-.23-.4-.35-.6-.57-1.03-1.01-2.13-1.31-3.25,0-.03,0-.05-.02-.08h.02s.06.03.09.05c.53.29,1.02.54,1.51.75,1.13.5,2.17.79,3.19.89.66.06,1.29.05,1.89-.03.85-.13,1.68-.41,2.48-.86,1-.55,1.9-1.31,2.68-2.25.7-.84,1.3-1.8,1.82-2.93.63-1.36,1.1-2.87,1.46-4.6.19-.94.34-1.93.44-2.94.09-.85.14-1.69.16-2.5.04-1.43,0-2.94-.11-4.91-.02-.36-.04-.74-.06-1.11v-.08h.47c.2.02.41.03.62.04.1,0,.21-.01.27-.13.02-.04.06-.08.09-.11,0-.01.03-.03.04-.04.69-.78,1.38-1.56,2.06-2.34v-.02c.06-.05.1-.1.13-.15.03-.05.03-.11,0-.15l-.07-.06Zm-4.8-1.49c.03-.24.05-.47.09-.7.2-.08.4-.15.59-.22.1-.04.2-.07.3-.11l.28-.1c.21-.08.42-.16.64-.23.09-.03.18-.07.28-.1.18-.07.37-.14.56-.2-.39.47-.77.94-1.16,1.41l-.53.64c-.36-.02-.71-.04-1.08-.07,0-.1.02-.21.04-.31h0Zm-3.67,6.22c.11-1.19.18-2.51.2-4.02.32-.23,2.74-1.74,3.12-1.95v.02c.11,1.3.17,2.62.17,3.92v.02c-1.26.84-2.4,1.56-3.48,2.21h0c0-.07,0-.14,0-.2h0Zm-3.08,1.92v-.02c0-.09,0-.18,0-.27,0-.15.02-.3.02-.45.03-1.07.02-2.05,0-2.99v-.11h0c.26-.2.6-.41.76-.49v.02c0,1.01-.23,3.42-.38,4.14-.13.07-.27.15-.4.22,0-.01,0-.02,0-.04h0Zm-.04.61c0-.06,0-.13.02-.19v-.04l.14-.07c.37-.2.74-.41,1.11-.61v.04c.06.92.05,1.82-.03,2.66-.13,1.45-.45,2.93-.99,4.53-.52,1.54-1.11,2.91-1.8,4.17-.63,1.15-1.42,2.28-2.43,3.45-.02.02-.04.04-.06.06h0c-.22-.16-.7-.74-.85-1h0s.05-.07.08-.1c.43-.48.83-.99,1.21-1.51.49-.69.92-1.45,1.3-2.21.2-.4.38-.8.55-1.21.17-.42.28-.9.48-1.3.43-1.28.75-2.6.96-3.93.15-.96.25-1.85.3-2.72l.02-.02Zm-7.47,13.96s-.08-.04-.12-.06c-.03,0-.06-.03-.09-.04-.09-.04-.09-.06-.05-.15.02-.04.03-.08.05-.11,0-.03.02-.05.03-.08.08-.18.14-.4-.06-.59h0v-.04c.05-.08.09-.17.06-.28-.05-.13-.1-.25-.21-.34-.19-.15-.46-.15-.67,0-.04.03-.08.06-.12.1,0,0-.03.02-.04.04-.02-.02-.05-.03-.06-.05-.09-.11-.25-.15-.39-.17-.12-.02-.25,0-.38,0-.14,0-.29,0-.43,0h-.17c-.1,0-.2.05-.3.07-.11.03-.22.02-.33-.02-.02,0-.05-.02-.07-.02-.1-.02-.14.02-.18.09l-.02.03c-.03.06-.07.13-.11.18-.06.08-.13.09-.21.06-.02,0-.05-.02-.07-.02h-.04c-.21-.08-.41-.03-.6.12-.05.04-.09.08-.14.13s-.12.14-.12.26v.1c0,.13-.09.2-.23.24h-.05c-.28,0-.48.16-.65.3-.18.14-.31.34-.39.57l-.02.05s-.02.05-.03.08c-.02-.02-.04-.03-.06-.04-1.11-1-2.01-1.98-2.76-3-.58-.79-1.09-1.66-1.54-2.63,0-.01,0-.03-.02-.04-.02-.03-.03-.06-.03-.08.26-.02,1.43-.02,1.69,0,0,.02,0,.05.02.08.04.37.23.67.55.88.02.02.05.03.07.05.06.04.12.08.19.12.08.04.12.1.14.18,0,.05.03.09.05.14,0,.02.02.04.03.06.14.36.39.66.73.89.25.16.53.29.83.37.24.06.48.12.71.16.51.1.99.27,1.5.38.5.11,1,.17,1.51.18.49,0,1,0,1.47-.13.07-.02.13-.03.2-.05.06,0,.11-.04.17-.06.28-.08.56.04.64.3,0,.03.02.06.04.1l.02.04c.06.14.16.24.29.28.12.04.2.11.26.22.02.04.04.07.08.11.09.1.22.12.33.05.16-.11.24-.26.23-.45,0-.09-.04-.17-.12-.23-.04-.04-.08-.07-.13-.11h-.02s0-.03.02-.04c.02-.02.03-.03.04-.04.04-.04.08-.07.12-.11.08-.07.16-.15.24-.24.17-.2.39-.29.66-.26.04,0,.08,0,.13.02.03,0,.06,0,.08,0,.11.02.17-.03.19-.08.04-.07.03-.14-.04-.2,0,0,0,0-.02-.02.08-.06.16-.07.26-.03.07.03.15.07.24.12.2.12.39.24.63.26-.32.61-2.39,2.77-3.15,3.29,0-.03.02-.06.02-.09.02-.06.03-.12.04-.18.05-.29-.03-.46-.29-.61l-.03-.02Zm-7.71-20.09c0,.19.04.22.22.24.09,0,.17.02.26.03.12.01.24.02.35.04,0,0,.03,0,.05.02h0c-.11.01-.21.02-.32.03-.86.04-1.73-.1-2.59-.43-.25-.09-.52-.2-.79-.34.35-.13,1.29-.36,1.7-.41.69-.08,1.07-.09,1.3-.04,0,.02,0,.04-.02.07,0,.01,0,.02-.02.04-.09.23-.12.48-.12.76h-.02Zm-1.55.38c.7.2,1.43.29,2.17.25.88-.05,1.76-.25,2.68-.63.19-.08.37-.16.57-.24.08-.03.16-.07.24-.1.42.4.54.49.75.57h.04c.08-.04.06-.12.05-.16-.05-.18-.09-.35-.14-.53,0-.04-.03-.08-.04-.12v-.03s.08-.06.13-.07c0,.03,0,.07.02.11,0,.04,0,.08.02.12,0,.04.02.09.03.13,0,.04.02.09.03.13.03.08.06.18.1.26,0,.02.02.04.03.07.02.06.05.14.12.18l.03.02.03-.03c.12-.13.14-.2.3-.95h0s.04.01.07.03c0,0,.03.02.04.03.62.32,1.2.56,1.75.75.79.27,1.58.4,2.35.4h0c.71,0,1.42-.13,2.17-.4.48-.17.9-.35,1.28-.56.08-.05.15-.05.24-.02.31.11.68.24,1.07.32.06.01.11.02.17.04.03,0,.06.01.09.02.08.46.17,2.96.14,4.16-.04,1.53-.12,2.87-.21,3.24h-.04c-6.51-.03-13.03-.07-19.54-.11h-.02c-.04-.19-.05-.39-.07-.58v-.14c-.21-2.23-.2-4.43,0-6.53h.02s.09-.03.13-.03c.14-.03.28-.06.43-.08.3-.06.61-.12.91-.18.11-.02.19-.02.27.03.51.26,1.04.47,1.59.63h-.01Zm2.64-.49c.09.06.1.11.04.28,0,0-.02-.02-.03-.04v-.02s0-.02,0-.03c-.03-.07-.03-.13,0-.19Zm.33.36s.04-.08.06-.12c0-.01.02-.03.03-.04,0-.02.03-.04.04-.05s.02-.04.04-.06h0s.02.04.03.06c.03.06.06.11.1.16-.02,0-.05.02-.07.02s-.05.01-.07.02c-.05,0-.1.01-.15.02h0Zm.41-.51s.04,0,.05.01.02.02.03.03c.04.07.04.14.02.2-.03-.03-.05-.06-.06-.09,0-.02-.02-.04-.02-.06s0-.04,0-.06v-.03h-.01Zm.55-.21v.26s0,.06.02.08c0,.02.03.04.05.06.02.01.04.02.06.03h.08c-.07.02-.13.04-.2.06-.06.02-.12.03-.17.04h0v-.13s0-.09.02-.13c0-.06.03-.12.05-.18.02-.04.04-.07.07-.1h.02Zm.29-.02v-.03h.05s.02,0,.03.01h0v.08s0,.03-.02.04c0,.02-.03.03-.06.04v-.14Zm.19.36s.08-.07.11-.11.05-.09.06-.15v-.03s0-.02,0-.03h.05s.02.02.02.03c0,.02,0,.04.02.07,0,.02,0,.04,0,.06h0v.02s-.05.03-.09.05c-.03.02-.07.03-.11.05l-.09.03h0Zm-1.47-3.91c0,.07,0,.13-.04.2-.08.16-.16.32-.23.49l-.07.14h-.04s-.09-.01-.13-.02c-.61-.14-1.26-.17-1.99-.09-.61.07-1.22.21-1.81.34-.12.03-.23.05-.35.08-.12.03-.23.05-.35.08-.33.07-.67.15-1,.21-.2.04-.41.06-.62.09h-.1c-.08.02-.17.03-.25.02,0,0,0-.02.02-.03h0c.17-.22.31-.46.42-.7.1-.2.15-.41.17-.62.05-.78-.23-1.43-.84-1.93-.31-.25-.67-.39-1.13-.42-.42-.03-.83.04-1.18.1-.24.05-.43.07-.62.07h-.05c-.2,0-.41-.07-.63-.19,0,0-.02-.01-.03-.03.04-.05.08-.08.12-.1.38-.19.74-.42,1.11-.7.02.03.04.05.06.08.1.12.22.15.36.1.08-.03.16-.07.23-.12.19-.11.38-.23.58-.35l.19-.12s.06-.03.09-.05l.03-.02c.05.07.12.16.24.16.13,0,.25-.04.35-.11.17-.13.34-.25.55-.39.03-.02.06-.03.1-.04h.02s.05-.01.08-.02h.04c.4-.05.75-.2,1.05-.46,0,0,.02-.02.04-.03.13.11.15.13.32.16v.21c0,.21.08.38.23.5.12.1.27.14.43.12.06,0,.12-.04.17-.07h.02s0-.02.02-.02.03.02.05.03c.02.01.04.03.06.04,0,0,.02.01.03.02h.02c.2.11.41-.02.55-.17s.22-.37.47-.31c.24.06.5.06.78.02,0,0,.11-.02.12-.02h0s.05-.01.07-.02h.02l.03.06h0c.06.17.17.25.25.39.13.22.17.48.5.41.04,0,.08-.02.12-.03.02,0,.03,0,.05-.01,0,0,.17.3.19.33.09.11.21.17.34.21.02,0,.05.01.07.02l.02.05c.08.19.23.61.51.42.06-.04.11-.08.15-.14,0-.01.02-.03.03-.04-.06.08-.08.24-.1.34-.03.12-.05.25-.06.38-.02.28-.06.58.06.84.04.09.14.21.12.3,0,.05-.04.1-.05.15,0,.06,0,.12,0,.19v.02Zm0-2.83c-.03.17-.12.35-.24.53,0,0,0,.01-.03.02-.04-.05-.06-.1-.08-.16,0-.03-.02-.06-.03-.08-.04-.08-.04-.17-.02-.28.03-.12.03-.25,0-.35-.04-.21,0-.41.06-.64.06-.18.16-.36.31-.55h0s0,.03.02.04c.09.52.09,1,0,1.47h.01Zm-.32-1.77s0,.02-.02.03c-.02.03-.03.05-.05.06-.23-.68-.05-1.45.45-1.94v.09c0,.08.02.16.02.24,0,.64-.12,1.12-.4,1.51h0Zm.29-2.16h0c-.08.1-.18.19-.3.27-.04.03-.08.05-.13.07,0-.09,0-.17,0-.25,0-.12,0-.23.04-.34,0-.06.03-.13.05-.2.02-.07.05-.15.09-.23,0-.03.03-.06.05-.08.13-.15.29-.27.48-.34.03-.01.05-.02.07-.02h.03s.05.04.06.1c.02.06.02.11,0,.18-.09.29-.23.57-.44.82v.02Zm2.83,1.27s.02.04.03.06c-.35-.15-.59-.32-.76-.54-.18-.24-.32-.51-.42-.86.04.03.07.07.11.1.06.05.12.11.18.16.37.29.66.65.86,1.08Zm-.69-1.77s.05,0,.07-.01c.05,0,.09-.01.14-.02.17.1.23.16.32.28-.14.05-.28.07-.44.06-.02-.06-.04-.13-.06-.19,0-.04-.02-.08-.03-.12h0Zm1.85,9.14c-.25.38-.4.76-.45,1.16-.03.01-.06.03-.09.04-.05-.03-.1-.07-.15-.12,0,0,0-.01-.02-.02h0s.03-.04.04-.05c.16-.15.27-.32.34-.53h0c.02-.07.04-.12.09-.15s.08-.09.09-.15c.06-.17.12-.35.17-.53v.15c0,.07,0,.13-.05.19h.03Zm.06.27c.1.64.05,1.27-.13,1.85h0c-.3-.58-.25-1.25.14-1.85h0Zm-1.93.07l.07.07c.07.07.13.15.21.23-.02.26.02.5.09.72.03.07.06.14.09.2h0s-.02.01-.04.02c0,0-.02.01-.04.02,0,0,0-.02,0-.03v-.02c-.05-.24-.11-.45-.17-.65s-.12-.39-.2-.56h0Zm-1.79-4.91c-.07.06-.11.13-.14.2v-.06c.03-.29.06-.59.08-.88v-.16c.04.07.05.13.03.21-.04.21-.04.44,0,.69h.02Zm0-2.33c.37.31.64,1.02.48,1.85-.48-.46-.68-1.24-.48-1.85Zm-.04-1.5h0c0-.06.03-.13.05-.19v-.02s.05-.08.08-.12c.05-.06.09-.12.15-.19h0c.02.07.04.13.05.2.07.24.13.49.17.74.05.35.03.64-.07.93-.02-.01-.03-.02-.03-.03-.15-.23-.26-.45-.34-.69-.06-.2-.06-.39-.05-.63h0Zm.46-.59c.28.19.5.4.66.63.21.31.29.72.21,1.09-.35-.29-.8-1.19-.86-1.72h-.01Zm.97,4.44c.09-.03.14-.09.21-.16.03.02.05.06.07.09s.04.07.06.1c0,0,0,.02,0,.03,0,.02-.03.02-.04.01-.05-.01-.07-.05-.1-.09-.21.21-.32.22-.47.03.09.02.18.02.27-.01h0Zm.9-2.3h0c0,.13-.02.26-.04.39-.26-.19-.44-.38-.56-.58-.12-.21-.17-.42-.15-.58,0-.04.02-.07.04-.07h0s.05.01.11.06h.02c.13.14.28.25.46.35.03.04.05.09.07.16.02.06.03.13.03.22h0v.04h.02Zm.48,3.84c.02-.05.03-.11.06-.16h0s0-.01.02-.01h.02s0,.01.02.02c0,.05,0,.11,0,.16-.03.16-.16.29-.33.31-.06,0-.12,0-.17-.02s-.1-.06-.14-.1c-.03-.04-.08-.1-.08-.15h0s.04-.01.05.01c.02.02.04.03.06.05.11.08.27.17.39.06.04-.04.07-.09.09-.15v-.02Zm-.07-2.58c.06.03.09.05.12.07.08.06.14.13.18.22.19.41.29.83.25,1.29,0,.02,0,.04-.02.08-.14-.04-.24-.12-.32-.23-.09-.13-.15-.29-.18-.44-.07-.31-.05-.63-.03-.98h0Zm-.7.59c-.15,0-.18-.03-.24-.23.04.03.06.04.08.06.09.09.18.11.3.05.04-.02.09-.03.11.03.02.04-.02.08-.09.09h-.16Zm.03.79s-.05.02-.08.02c-.08,0-.15-.04-.2-.13.1.01.19.02.28.04,0,0,.02.02.02.03s0,.03,0,.04h-.01Zm-.86.26h0s.02-.01.03.01v.04s0,.03.02.04c.02.03.04.06.07.06h.08s.04-.03.05-.05c0,0,0-.02.02-.02,0,0,.02-.01.03-.01.03,0,.04.05.05.07,0,.02.02.04.03.07,0,.04.03.11.09.12,0,0,.03,0,.04-.01,0,0,.02-.02.03-.03.03-.04.05-.09.09-.13.02-.02.04-.05.07-.05.02,0,.03.03.03.04,0,.06-.15.25-.2.3-.04.04-.11.04-.15,0-.04-.05-.07-.11-.1-.17h0s0-.01,0-.01h0s-.09,0-.12,0c-.02,0-.03-.01-.04-.02,0,0-.02-.02-.03-.03-.04-.05-.06-.11-.04-.18l-.04-.04Zm.26.83s.02-.06.04-.06h0s.04.05.05.09c0,.04.02.08.03.12.02.05.04.11.11.12.06,0,.1-.03.13-.12,0-.03,0-.06.03-.08,0-.01.04-.02.06-.02s.04.03.04.04c0,.11-.13.26-.23.29-.06.02-.12,0-.16-.04-.07-.07-.11-.15-.11-.25,0-.03,0-.07,0-.1h0Zm.46.53s.03-.04.04-.04c.1.01.08.16.1.23,0,.06.03.13.08.18.06.05.12,0,.16-.04.03-.04.05-.09.09-.11h.05s0,.01,0,.02c.04.08.07.17.12.25.06.09.13.1.22.02.02-.01.03-.03.05-.05.02-.01.03-.01.06-.01.05,0,.05.05.04.09-.06.19-.28.25-.44.11-.05-.04-.08-.1-.13-.15-.06.01-.11.03-.17.04-.09.01-.16-.01-.21-.08-.1-.14-.13-.3-.09-.47h.02Zm.92,2.04c-.02.24-.31.37-.51.23-.11-.08-.14-.15-.14-.35.08.09.13.15.18.2.1.09.19.09.28-.02.03-.03.04-.08.07-.11.02-.02.05-.03.08-.02.02,0,.04.04.04.06h0Zm-.56,1.34h0c.39.27.74.92.78,1.31-.22-.14-.4-.32-.54-.51-.17-.23-.25-.5-.24-.8Zm1.41-3.56c-.02.11-.04.22-.07.32-.25-.45-.32-1.21-.18-1.64.19.26.29.67.28,1.05,0,.08-.02.17-.02.27h0Zm-.09-2.4s-.08-.06-.12-.08c-.1-.07-.21-.14-.31-.22-.23-.18-.4-.42-.51-.71h0c-.07-.18-.11-.35-.14-.53.02.02.04.03.05.04l.09.08c.14.13.29.27.43.41.11.12.23.27.33.43.14.2.2.4.21.6,0,0-.02,0-.03-.01h0Zm-1.9-3.69s-.07-.01-.11-.02c-.14-.02-.3-.05-.44-.09-.4-.12-.66-.36-.81-.72,0-.02,0-.03-.02-.05.47.05.88.24,1.25.58.08.08.13.18.14.3h0Zm-1.32-1.18h-.08c-.33-.04-.62.05-.84.27h0c0-.09.02-.16.05-.22s.06-.11.09-.15c.07-.1.17-.18.3-.25.07-.04.14-.05.21-.05s.13.01.19.02c.07.02.11.06.12.15,0,.06,0,.1-.04.22h0Zm-.55,6.65c.03-.28.09-.59.24-.84l.05.12c.04.1.07.2.11.3.02.05.03.09.03.14,0,.23-.02.38-.09.6-.06.21-.22.36-.31.56-.08-.33-.06-.55-.03-.89h0Zm.35-1.74l.05.06c.14.17.28.34.38.53.07.12.12.24.16.36.05.14.08.26.1.38.02.15.03.31.04.47v.14c-.42-.27-.84-1.35-.74-1.94h0Zm.19,2.97s.02.02.02.03c.09.18.19.36.3.51.09.14.12.32.14.46.04.25.04.51,0,.83h0c-.43-.48-.6-1.19-.46-1.83Zm.44.35h0c-.04-.09-.09-.18-.15-.26-.08-.11-.13-.24-.15-.41-.02-.15-.02-.31,0-.49.48.3.89,1.02.89,1.57h0c-.14-.04-.26-.1-.37-.19-.09-.07-.15-.14-.19-.22h-.03Zm.24,1.06c.03.07.07.13.1.2.02.04.02.08,0,.12h0s-.03,0-.05-.01c-.02,0-.03-.01-.05-.02,0-.1,0-.19.02-.29h-.02Zm.05-.39c.26.15.48.32.66.52.25.27.38.61.4,1.02-.36-.21-.89-.98-1.06-1.54Zm.22.88s.06.1.09.15h0c.22.47.4.96.53,1.49v.06c-.07-.05-.13-.12-.18-.18l-.03-.04c-.23-.26-.36-.49-.41-.75-.05-.25-.06-.49,0-.73Zm2.8.68c-.06-.13-.14-.24-.18-.38-.03-.09-.03-.16,0-.24,0-.06.04-.11.07-.18.17.18.29.47.35.78,0,.11-.04.21-.08.29,0,.01-.14-.25-.15-.28h-.01Zm.02.43s-.05.05-.07.07c-.02.02-.04.04-.07.06,0-.02-.02-.03-.02-.05v-.37c.04.07.08.14.13.21l.04.07h0Zm.1-2.25v.06s0,.07-.02.1c-.28-.52-.39-1.07-.33-1.68,0,0,0,.01.02.02.35.44.47.95.34,1.51h0Zm3.6,2.75s0-.07-.02-.1v-.02s.05-.01.08-.01c.46-.05.94-.05,1.48,0,.59.05,1.19.16,1.83.35.04.01.08.02.13.04h0s-.04.03-.06.03c-.7.34-1.34.56-1.95.69-.59.13-1.21.15-1.9.08-.67-.07-1.36-.25-2.1-.55-.03-.01-.06-.03-.09-.04h0c.67-.22,1.3-.38,1.91-.5,0,.01.02.03.03.04.02.03.04.06.07.08.07.09.16.15.27.18h0c.09.02.18,0,.24-.05.06-.05.09-.13.08-.23h0Zm-14.32,8.4s.09-.02.14-.01h2.75l16.4.08h.08c.07,0,.13,0,.18.01.02.04,0,.08,0,.13v.04c-.04.34-.08.64-.13.96-.2,1.27-.5,2.51-.88,3.7-.22.66-.44,1.24-.67,1.77-.02.05-.05.1-.07.15h0l-15.86.03h-.15s-.02-.04-.03-.06c-.02-.04-.04-.09-.06-.14-.42-1-.77-2.07-1.07-3.25-.24-.97-.43-2.01-.59-3.18,0-.07,0-.14-.02-.21h0v-.02Zm13.11,10.86s.06.04.09.07c.02,0,.04.03.05.04.11.09.11.11.04.23l-.02.03h-.02s-.02,0-.04-.04c0,0,0-.02,0-.02-.09-.15-.2-.24-.34-.28-.09-.03-.15-.09-.18-.19,0-.04-.03-.08-.05-.12-.16-.41-.63-.55-1.03-.43-.14.04-.26.12-.39.18-.35.16-.75.12-1.13.1-.4-.02-.8-.05-1.2-.11-.52-.08-1-.26-1.51-.39-.19-.05-.39-.09-.59-.13-.1-.02-.19-.04-.29-.06-.28-.06-.52-.14-.74-.24-.13-.06-.25-.13-.35-.19-.33-.21-.53-.5-.61-.89,0-.03,0-.05-.02-.08,0-.12-.09-.19-.16-.23-.13-.08-.28-.17-.42-.28-.2-.15-.3-.37-.32-.65h.02l13.7-.02h.04s0,.04,0,.05c-.43.93-.93,1.8-1.48,2.59l-.03.03c-.19.04-.36,0-.52-.09l-.09-.05c-.1-.06-.2-.12-.3-.17-.19-.1-.38-.1-.57,0-.09.05-.19.11-.22.23-.06,0-.12,0-.18.02h-.09c-.2.03-.36.11-.5.25-.04.04-.07.08-.11.11-.12.13-.25.26-.39.37-.03.02-.06.05-.08.09-.07.1-.06.22.03.31l.02-.04Zm9.19-20.67v.03c-.07.33-.15.6-.26.84-.06.13-.13.25-.2.36-.23.36-.56.59-1,.68-.3.06-.62.07-1.01.03-.49-.05-.96-.21-1.41-.37l-.05-.02c-.72-.25-1.4-.42-2.08-.51-.39-.05-.79-.08-1.18-.08-.58,0-1.15.06-1.71.17-.67.14-1.32.32-1.94.53-.13.04-.22.04-.33-.02-.17-.09-.35-.17-.51-.28-.02-.01-.04-.03-.03-.06,0-.01,0-.02.02-.03.32-.32.66-.62,1.03-.89.59-.44,1.28-.73,2.04-.87.78-.14,1.58-.19,2.4-.14.92.05,1.83.19,2.52.3l.32.05c.56.09,1.14.18,1.7.29.27.05.55.05.86,0,.29-.05.54-.18.76-.37l.1-.09c0,.16-.04.31-.06.44h.02Zm-10.19-4.23c0-.05,0-.11-.03-.17.02-.01.04-.02.07-.03.08-.04.15-.08.23-.13.02-.01.11-.1.14-.08h0c.03.12,0,.21.09.3.03.04.07.09.12.11.04.02.09.02.13.01.14-.02.26-.08.37-.17.1-.08.21-.16.28-.26.02-.03.04-.05.06-.08,0,0,0-.02.02-.03,0,.08.03.18.06.25.02.05.06.09.11.1.04,0,.09,0,.13-.02.04-.02.09-.05.13-.06.05-.01.09,0,.13-.04.04-.03.07-.07.09-.11.07-.11.13-.22.16-.35,0-.02.08.11.08.12.02.05.05.1.11.12.05.02.1,0,.15-.02.04-.03.08-.07.11-.1.11-.13.23-.26.34-.39.05-.06.11-.13.14-.21s0-.16.04-.23c.08,0,.16-.02.23-.06.19.04.44.16.57.1,0,0,.02-.01.03-.02h.18c.11-.02.21,0,.33.06,0,.02.02.05.03.07.02.06.04.11.07.16.1.17.28.25.48.21.1-.02.17-.08.23-.15.05.02.09.05.14.07.22.09.37.04.49-.16.07-.12.11-.27.12-.46v-.2c.05-.02.1-.04.16-.07.04-.02.07-.03.11-.05,0,0,.02.01.03.02.02.01.04.03.07.04.3.23.66.35,1.06.36.08,0,.14.02.2.08.19.17.35.29.51.37.11.05.24.11.38.15.2.05.3.01.4-.17.04.03.08.05.12.08.31.23.68.42,1.07.58l.04.02c.08.03.14.05.19.02.04-.02.06-.07.08-.13,0,0,.02.01.03.02.03.02.06.04.1.06.33.23.59.38.85.5.1.05.21.09.32.13.07.02.15.04.22.04h.02c.13,0,.21-.07.23-.21v-.07c.08.03.14.07.21.1.03.02.06.04.09.05,0,.01,0,.03-.03.04,0,0,0,.01,0,.02-.12.14-.26.26-.4.36-.22.15-.46.19-.72.13-.16-.04-.33-.09-.5-.13-.3-.07-.66-.14-1.02-.14h0c-.48,0-.9.16-1.25.48-.46.42-.76.95-.9,1.57-.06.26-.03.53.09.81.09.2.21.39.38.6.02.03.05.06.07.09-.03,0-.06,0-.11-.01l-.25-.04c-.19-.03-.38-.07-.57-.1-.91-.15-1.81-.29-2.73-.39-.42-.04-.85-.07-1.3-.07-.18,0-.37,0-.56.01h-.2v-.1s0-.04.02-.07c0-.03.02-.06.03-.1,0-.07,0-.13-.05-.18-.04-.05-.11-.06-.18-.05-.16.03-.29.11-.37.25-.03.06-.06.11-.08.17,0,.03-.02.06-.03.08,0,.02,0,.03-.02.05h0c-.08.05-.14.03-.19-.05s-.11-.16-.18-.24c-.06-.07-.13-.08-.17-.08s-.11.02-.16.11c-.07.11-.1.23-.09.39v.03s-.04.01-.07.02v-.02s-.04-.07-.06-.1l-.02-.04s-.06-.1-.1-.14c-.04-.05-.1-.07-.16-.07h0c-.06,0-.12.04-.16.09-.04.05-.06.1-.09.15-.1-.15-.24-.2-.41-.14-.05-.11-.07-.24-.05-.38,0-.11.02-.23.04-.35.05-.29.03-.57-.05-.83-.05-.16-.12-.29-.23-.41-.05-.05-.09-.1-.13-.15-.02-.02-.04-.05-.06-.07.1-.16.16-.32.16-.5,0-.02.02-.04.03-.06l.02-.02s.03-.04.05-.06c.03-.03.05-.07.07-.11.06-.1.08-.22.07-.35l-.02.03Zm1.56-1.02c-.1-.01-.18,0-.22.1-.02.04-.04.09-.06.13s-.04.09-.06.13c-.1.18-.25.3-.46.34h-.03l-.03-.09c-.02-.07-.04-.14-.06-.22,0-.04-.02-.07-.03-.11s-.02-.08-.03-.11c0-.02,0-.03-.02-.05.06-.04.12-.08.17-.13.03.08.16.1.24.04.08-.05.11-.14.15-.22.12.16.43.09.47-.11.1.09.27.08.37,0,.03-.03.06-.07.11-.08.06-.01.11.04.16.07.16.1.41-.03.42-.21.06.05.13.06.2.05v.09c-.04.09-.1.17-.19.25-.05.05-.1.11-.15.16,0,.01-.02.03-.04.04,0-.01,0-.03-.02-.05,0-.02,0-.04-.02-.06v-.02s-.04-.07-.07-.1c-.04-.03-.1-.04-.15-.04-.06,0-.11.06-.11.13v.19h0c0,.1-.04.18-.1.24h0s-.04.04-.06.06c-.04.03-.08.05-.12.06h-.04c0-.12-.03-.23-.04-.33v-.03c-.02-.08-.06-.12-.13-.13h-.05Zm0,.05h0Zm.79,4.19s0,.09-.02.14h-.06s.02-.07.03-.09.02-.03.05-.05h0Zm-1.54.44s-.03.02-.05.03h-.04c0-.05.02-.1.04-.14.02.02.04.06.05.1h0Zm-1.03-1.09c0,.07-.05.09-.11.1-.03-.05-.04-.09,0-.14,0-.02.05-.03.07-.02.02,0,.04.04.04.06Zm-.17.58s.07.04.1.08c0,.01.02.03.03.04.05.09.09.19.13.28l.06.13.02.06h0c.04.06.08.07.1.07.03,0,.06-.01.09-.03.02-.01.03-.02.04-.04,0-.03.02-.06.03-.09,0-.02,0-.04,0-.06,0-.01.02-.03.02-.03v.18c0,.05-.02.1-.04.15-.03.01-.05.03-.08.04,0,0-.02.01-.03.01h-.07s-.02,0-.04-.01c-.17-.09-.33-.2-.46-.34-.06-.06-.09-.13-.1-.21v-.17s0-.03.02-.05c0-.01.02-.02.03-.03.02,0,.03-.01.05-.01s.04,0,.06.01l.03.02Zm-.2-1.08c-.05.05-.12.09-.2.07-.07-.02-.11-.05-.13-.12.25-.07.28-.1.3-.36v-.06c0-.05.04-.09.08-.08.05,0,.08.04.09.08.02.18,0,.34-.14.47Zm-.1,1.73l.45.35-.09.06c-.12.08-.23.16-.35.24-.11.08-.22.17-.32.25-.04.03-.07.06-.11.09h0v-.35c0-.27-.03-.48-.1-.67,0-.02,0-.04-.02-.06h0c.16.07.33.1.51.09h.03Zm10.94-.45c-.13.22-.38.44-.63.54-.22.09-.45.13-.71.12-.05,0-.08,0-.11-.03-.3-.28-.49-.52-.61-.78-.15-.32-.15-.39.05-.67.08-.11.17-.21.28-.33.09-.1.2-.16.34-.21.53.29,1.11.69,1.39,1.36h0Zm3.18-2.21h.62s0,.02-.02.02c-.31.35-.64.62-.98.81-.32.18-.67.27-1.04.27h-.02c-.47,0-.91-.1-1.28-.2-.16-.04-.31-.09-.47-.13-.13-.04-.26-.08-.39-.11-.23-.07-.44-.1-.64-.12h-.1c-.32,0-.6.12-.84.36-.03.03-.06.07-.1.1.22-.55.5-.94.9-1.21.22-.15.46-.23.74-.25.31-.01.64.02,1.02.11.17.04.34.08.52.13.39.12.76.04,1.1-.23.06-.05.11-.1.16-.14.02-.02.05-.05.08-.07.03-.03.06-.06.09-.09v.02h0v.56c0,.14.05.19.19.19h.44l.02-.02Zm-.35-1.09c-.03-.12-.13-.14-.2-.16-.03,0-.06-.01-.08-.02-.15-.07-.3-.15-.44-.24-.06-.04-.13-.09-.19-.13-.03-.02-.06-.05-.09-.07-.03-.02-.07-.04-.08-.08v-.07s-.02-.06-.03-.08c-.02-.04-.04-.07-.05-.11,0,0,0,.01,0,.02h0c.25.25.56.42.9.5.07.02.14.03.21,0,.03.04.07.07.1.11.12.12.18.24.2.37-.09.02-.17,0-.26-.04Zm-12.91-3.48h0c0-.05-.02-.08-.03-.11,0-.05,0-.1,0-.16,0-.11,0-.21.06-.32l.05-.11-.11.06s-.07.03-.11.05c-.08-.09-.16-.18-.24-.26,0,0-.07-.08-.06-.08.06,0,.12,0,.17-.01.26-.04.43-.18.51-.4.03-.1.06-.2.07-.29.03-.25,0-.5-.07-.73-.07-.19-.13-.37-.22-.59-.14-.35-.22-.64-.25-.92-.03-.25,0-.48.06-.69.07-.24.21-.43.42-.58.13-.09.28-.17.48-.25.5-.19,1.03-.27,1.64-.23,1.16.07,2.28.29,3.33.66.73.27,1.42.62,2.03,1.04.55.38,1.14.79,1.75,1.18,1.31.84,2.65,1.83,3.97,2.92.88.73,1.82,1.51,2.88,2.4.07.04.13.08.19.12.1.07.17.15.23.24h0c.41.37.79.74,1.14,1.1.15.16.31.33.45.5.1.13.19.27.27.41l.05.08s.03.06.04.1c-.03,0-.05,0-.09-.02,0,0-.02,0-.04-.01-.16-.05-.3-.13-.47-.27,0-.16-.02-.17-.17-.33-.18-.2-.37-.39-.56-.59-.07-.07-.14-.14-.21-.21-.03-.03-.06-.05-.08-.08-.03-.03-.06-.06-.1-.05-.04,0-.06.06-.06.1,0,.05.04.1.08.14.1.1.2.19.29.31.04.06.07.12.1.18.02.06.08.1.11.16-.24-.08-.43-.19-.58-.35-.1-.1-.21-.19-.32-.28-.06-.05-.12-.09-.17-.14-.04-.03-.08-.08-.13-.1-.02,0-.05-.02-.06,0-.02.02-.02.05,0,.08.05.14.14.26.25.35s.19.22.26.34c0,.02,0,.04,0,.06,0,0-.02.02-.05.02-.06,0-.11-.02-.14-.03-.1-.06-.2-.12-.29-.2-.12-.1-.23-.22-.36-.31-.13-.1-.27-.19-.41-.27-.04-.02-.08-.04-.13-.05-.02,0-.04,0-.05.02v.03c0,.07.04.12.06.18.05.11.1.21.1.32v.04s-.03,0-.04-.01c-.06-.03-.11-.07-.17-.1-.03-.02-.07-.04-.1-.07-.27-.16-.49-.3-.69-.42-.07-.04-.14-.07-.2-.09-.08-.03-.13,0-.17.04-.04.05-.04.11,0,.17.02.02.03.05.05.07.02.03.04.06.06.09s.04.06.05.1c-.03-.01-.05-.02-.07-.03-.29-.16-.54-.36-.75-.54-.04-.03-.07-.08-.09-.12-.05-.1-.12-.18-.18-.25-.04-.05-.09-.1-.13-.14-.05-.05-.04-.08-.05-.15,0-.08-.05-.16-.09-.23,0,0-.02-.01-.03-.02h0s.03.1.02.15-.07.07-.12.08c-.39.09-.82-.02-1.13-.27,0,0,0,.02.02.02,0,0,0-.01-.02-.02,0,0,0,.02.02.03,0,.02.02.04.04.05.03.06.04.13.03.2-.02.07-.17.02-.21,0-.37-.15-.72-.34-1.04-.58.15.32.39.61.68.82.1.07.21.13.33.15.05,0,.11,0,.16-.02l.02.02c.08.09.16.2.2.31h-.03l-.1-.04c-.1-.04-.21-.08-.31-.13-.4-.2-.78-.46-1.13-.74-.03-.02-.06-.04-.09-.04-.08.02-.1.19-.11.26h-.03s-.08-.03-.12-.05c-.35-.16-.68-.37-1.01-.64l-.04-.03s-.07-.06-.1-.08c-.03-.02-.08-.03-.13-.03s-.1.03-.12.06c-.03.04-.04.09-.02.14,0,.03.02.05.04.07.02.03.04.06.04.1h-.05c-.12-.02-.24-.08-.35-.15-.13-.09-.25-.19-.37-.28l-.07-.05s-.05-.05-.08-.07l-.03-.02c-.06-.07-.14-.08-.21-.04-.06.04-.12.03-.19.02h0c-.27-.03-.53-.14-.77-.33-.03-.03-.06-.06-.09-.09-.02-.02-.03-.04-.05-.06h-.03c-.08-.01-.14.04-.18.09-.04.04-.08.08-.14.08-.02-.02-.04-.04-.06-.07-.05-.06-.12-.08-.16-.04,0,0-.02.02-.02.02-.03.03-.06.07-.06.11,0,.03,0,.07,0,.1v.02c.02.06.03.12.04.19v.21s0,.07,0,.1c0,.05-.03.1-.06.16-.02.03-.04.06-.06.06s-.05,0-.09-.02c0,0-.02-.01-.03-.02h-.02s-.05-.04-.07-.06l-.04-.03s-.11-.07-.18-.05c-.06.02-.1.07-.13.13v.02s-.02.04-.04.05c-.02.02-.06.03-.09.02-.04,0-.08-.03-.1-.06-.04-.06-.06-.11-.07-.15-.02-.14-.11-.2-.2-.24,0,0-.02,0-.03-.01-.07-.03-.14-.05-.2-.06-.09-.01-.16-.01-.24,0,0-.12-.04-.24-.11-.31,0-.01.02-.02.02-.02.1.01.2.02.29-.01.09-.03.17-.13.14-.22,0-.05-.04-.11,0-.13.02-.01.04,0,.06,0,.21.02.39-.19.41-.4s-.06-.41-.16-.6c-.12-.24-.25-.47-.47-.63.19.33.31.71.32,1.1,0,.1,0,.2-.06.27-.1.13-.34.11-.41-.03,0,.12-.07.24-.17.31-.03.02-.06.03-.1.04-.04-.35-.29-.76-.41-1.1.03-.1,0-.2-.05-.3-.03-.05-.06-.11-.09-.16.04.03.09.06.15.06.12,0,.21-.12.23-.23.02-.12-.02-.24-.09-.33.12.14.31.22.48.17.2-.06.31-.34.17-.5.17.05.36-.04.45-.19.08-.15.05-.36-.08-.47.18,0,.37,0,.55.01.09,0,.22-.02.22-.11.15.09.31.19.49.2h.09c.09.18.23.35.34.52.14.21.25.48.17.72-.12-.02-.21-.12-.28-.21-.22-.28-.44-.57-.72-.8.34.39.52.91.5,1.42-.06.03-.13-.02-.18-.08-.31-.38-.45-.91-.87-1.16.17.25.34.52.48.78.16.29.3.67.11.94-.21-.43-.47-.84-.77-1.21.11.19.23.38.34.58.1.16.21.34.23.54.02.2-.11.29-.14.46-.07.49.61-.18.42-.23.13.04.27-.04.34-.16.06-.12.06-.26.05-.39.1.06.24.06.33-.02.09-.07.14-.2.1-.31.04.1.18.14.28.08.1-.05.14-.17.14-.28s-.04-.21-.09-.31c-.17-.35-.42-.66-.71-.9.11-.05.21-.14.21-.26.12.07.25.15.39.16.14.01.3-.06.34-.19.04-.14-.06-.21-.1-.33.13-.02.23.15.36.16.02,0,.05,0,.06-.03v-.04c0-.21-.16-.38-.33-.48-.18-.11-.37-.17-.56-.24-.11-.04-.21-.08-.31-.14-.12-.06-.24-.13-.36-.18,0,.06.11.13.15.16.07.06.15.11.23.16.18.1.35.22.5.36.09.09.21.18.18.31-.03.11-.13.21-.25.21-.17.02-.33-.07-.48-.16.05.08-.02.2-.12.23s-.2,0-.29-.03c-.14-.05-.27-.09-.41-.14.05.05.05.15,0,.2-.08.07-.2.05-.3.03-.29-.07-.58-.17-.85-.3.1.15.27.26.36.42s.08.41-.1.47c-.18.06-.34-.12-.52-.16.08.08.16.17.2.27.04.11.03.24-.06.31s-.22.06-.33.02-.19-.13-.31-.15c.11.06.21.26.14.39-.06.13-.24.12-.37.07.16.09.23.34.11.49s-.39.14-.51-.01h0c.06.14.13.28.25.38h0s.04.03.06.04c.12.07.3.06.4-.04.02.07.04.13.06.2.05.35.07.71.05,1.06h0c0,.06-.03.13-.08.18-.03.03-.06.05-.1.06-.05-.05-.07-.12-.09-.19-.1-.44-.21-.87-.31-1.31h0c.02.37.03.74.03,1.11,0,.09,0,.19-.04.27-.02.05-.06.09-.11.11-.04-.04-.08-.11-.09-.17-.06-.19-.11-.37-.17-.56.05.23.06.47.02.7h-.06s-.03.03-.04.05c-.03.05-.04.1-.05.15-.08.01-.18-.02-.24-.08-.09-.1-.11-.23-.12-.36-.03-.24-.07-.48-.1-.72.02.22.03.44.05.66,0,.13.02.26,0,.39s-.12.25-.24.29c-.04.01-.09.02-.12,0-.08-.03-.1-.14-.11-.23,0-.19-.02-.37-.03-.56,0,.3,0,.6-.14.86-.04.08-.14.16-.22.15h0s-.03-.02-.04-.03c0-.01,0-.03-.02-.04h0s-.02-.06-.03-.09c-.06-.19-.11-.37-.17-.56.03.15.05.3.04.45,0,.13,0,.26-.09.37-.03.03-.06.07-.1.09-.08.03-.18-.01-.23-.07-.09-.1-.11-.23-.12-.36,0-.07-.03-.14-.03-.21,0-.06,0-.12-.03-.17v.12c0,.07,0,.14.02.2,0,.13.02.26,0,.39s-.12.25-.24.29c-.04.01-.09.02-.12,0-.05-.02-.09-.08-.11-.15-.05-.18-.04-.46-.04-.57v-.02h.02c.23-.05.25-.25.24-.44h0s0-.01,0,0c0,0,0,.01.02.02.07.04.16.04.24.02s.15-.06.22-.1c.03-.02.07-.04.09-.07.05-.07.04-.17.02-.26.15.09.35.09.49,0h0c.17-.1.2-.36.08-.51h0s-.02-.02-.03-.03c0,0-.02-.02-.03-.03,0,0,.02.02.03.03,0,0,.02.02.03.03.11.07.28.04.34-.07.05-.09.02-.21-.05-.28.02-.01.04-.02.05-.04.08-.12-.13-.22-.18-.35.04.11.22.07.26-.04s-.03-.22-.08-.32c.05.09.2.1.28.02.07-.08.08-.2.04-.3-.04-.1-.12-.18-.19-.25.05.05.15,0,.17-.07s-.02-.15-.05-.21l-.21-.41c.05.01.1.03.16.04.08-.18.05-.41-.09-.56.06.01.11.02.17.03-.02-.24-.12-.48-.28-.66.08.11.15.23.13.36-.02.13-.17.24-.29.18.14.13.18.36.08.53-.02.04-.04.07-.04.11s.03.07.05.1c.1.14.11.34.03.5-.02.03-.04.06-.04.1-.02.09.05.18.07.28.02.09-.09.22-.16.14.07.07.08.31,0,.37-.05.04-.1.05-.16.06.04.11.07.23,0,.32-.05.07-.13.1-.22.11h-.08c.04.15.05.31.02.46,0,.03,0,.06-.04.07-.02.01-.04.02-.07.02-.14.02-.25-.03-.38-.08-.02.07-.02.15-.04.23-.02.08-.07.16-.14.2-.08.05-.18.05-.27.04-.14-.01-.39-.06-.44-.21.28-.17.59-.43.47-.81l-.06-.07Zm3.42.24c-.02-.06-.04-.13-.06-.19,0-.01.02-.02.03-.04,0,.07.02.15.03.22h0Zm-4.01,3.3s.02-.07.04-.1h0s0,0,.02.01c.05.1,0,.22-.05.3-.09.11-.21.11-.34.07-.02.05-.04.09-.06.12-.03.05-.06.11-.11.16-.06.06-.15.09-.22.05-.07-.03-.11-.1-.16-.15-.02-.02-.03-.04-.04-.07,0-.01,0-.02,0-.03h.02s.04.02.06.03c.05.05.1.12.18.12.07,0,.11-.08.13-.14.03-.07.03-.15.05-.23,0-.03,0-.07.02-.1,0-.03.07-.04.09-.02.02.03.04.06.06.09.07.08.15.09.22.02.03-.03.05-.07.06-.1v-.03Zm-.17-.44v.07s-.02.03-.03.04c0,.02-.03.05-.05.07-.04.04-.08.08-.13.11s-.11.04-.17.01c-.05-.02-.1-.06-.13-.11-.02-.02-.03-.05-.04-.07-.02-.03-.03-.05-.02-.08v-.03s.03-.01.04,0c0,0,.02.02.03.03.02.02.04.04.05.07,0,.03.03.05.05.06.05.04.12.04.18.01.07-.03.08-.11.13-.16,0,0,0-.01.02-.02.02-.01.04,0,.05,0h.02Zm-.74-.28s.06-.07.08-.11c.05-.1.08-.21.08-.32v-.05s.02-.03.04-.03.03.02.04.03c.03.05.02.11.04.17.02.06.06.12.13.12.08,0,.12-.04.15-.1.02-.05.03-.13.09-.15.02.02.02.05.02.07,0,.04-.03.09-.05.13s-.05.08-.09.1c-.1.07-.21.02-.31-.02-.04.06-.07.13-.12.18-.03.03-.13.12-.18.06-.03-.04.04-.08.06-.1l.02.02Zm-3.33-5.74c.05-.06.11-.09.17-.09h.08c.09,0,.19,0,.27.02.19.05.35.04.49-.04h0c.07.03.14.06.21.08.08.02.14,0,.2-.03.02,0,.03,0,.05-.02.26.14.39.36.37.65v.05c0,.06,0,.12-.02.17-.04.16.05.26.14.35.02.02.05.04.08.05,0,0,.02.01.03.02.26.18.48.41.64.67.12.2.22.42.3.66,0,.02,0,.03,0,.06v.02c-.11.11-.22.18-.36.23-.08.03-.15.03-.22,0-.05-.02-.11-.04-.17-.04-.03,0-.07,0-.11.02-.04.01-.1.01-.16,0h-.06c0-.1-.02-.19-.02-.28v-.13s-.02-.04-.02-.06v-.02c-.02-.44-.23-.79-.64-1.08-.08-.05-.18-.11-.32-.07-.03,0-.06.01-.1.02h-.04c-.07,0-.11,0-.16-.05-.28-.25-.6-.42-.95-.49h0c.03-.14.05-.31-.02-.48.03-.01.05-.03.07-.04.09-.04.16-.09.24-.17l.02.02Zm-12.98,6.02s-.06.1-.09.15c-.03.05-.07.08-.11.12-.08.08-.17.16-.25.23-.06.05-.14.11-.22.12h-.04s-.02-.02-.03-.03c-.05-.09-.09-.19-.11-.3,0-.03,0-.06-.03-.07-.13-.09-.27.26-.31.34-.07.12-.21.22-.33.28-.05.02-.09.04-.14.03v-.05s0-.07.02-.1c0-.04.02-.09.02-.13s-.02-.1-.05-.13c-.05-.04-.12-.04-.17,0-.03.02-.05.04-.08.07,0,.01-.02.02-.04.03-.25.21-.46.37-.69.48-.1.05-.21.09-.31.13-.03.01-.07.01-.11.01h0s0-.04,0-.06c.05-.12.11-.24.16-.36v-.02s.04-.06.06-.09.03-.05.04-.08c.03-.06.02-.13-.03-.17s-.12-.04-.17,0c-.06.04-.11.09-.16.15-.07.07-.13.14-.2.21-.08.09-.16.18-.25.27-.06.07-.13.13-.22.19-.12.1-.25.16-.38.19,0-.04,0-.09,0-.13v-.03s.02-.04.03-.06c0-.04.03-.08.03-.13s-.04-.1-.07-.12c-.03-.02-.09-.02-.12,0-.02.01-.04.03-.06.04,0,0-.02.02-.03.03-.05.03-.1.07-.15.1-.1.07-.21.15-.32.21-.23.13-.51.28-.77.47-.14.1-.27.16-.41.19h-.05v-.02s.04-.09.06-.13c.2-.44.48-.81.84-1.1l.03-.03c.14-.11.28-.22.42-.32.83-.57,1.56-1.21,2.16-1.75l.31-.28c.63-.57,1.29-1.16,1.94-1.73,1.52-1.33,3.31-2.26,4.93-3.45.6-.44,1.19-.79,1.89-1.04.12-.04.25-.08.37-.13.28-.1,1.13-.36,1.25-.39.89-.23,1.8-.32,2.72-.27.41.02.73.07,1.02.16.19.06.33.12.46.19.23.14.38.34.42.61.03.17.03.29,0,.41-.03.21-.07.41-.11.6,0,.03-.02.06-.04.1,0,0,0,.02,0,.02l-.2-.03h-.22l-.02.02s-.04.02-.05.03c-.03.02-.06.03-.09.05-.15.1-.19.21-.15.39v.02s.02.06.03.09c0,.01-.02.02-.03.03,0,0-.02.02-.03.02-.02.01-.04.02-.05.04-.03.03-.06.05-.09.07-.06.04-.12.09-.17.14-.25.26-.32.56-.22.91,0,.02,0,.04.02.06l-.02.06s-.03.08-.05.12c-.03.07-.04.15-.06.22-.04,0-.09-.01-.12-.04-.07-.08-.07-.2-.05-.3.03-.13.09-.25.18-.35-.09.06-.22-.01-.24-.12-.03-.1.02-.21.08-.29.04-.06.09-.12.13-.19-.03.01-.08.01-.11-.01-.05-.05-.05-.14-.03-.21s.04-.14.08-.21c-.09.13-.18.26-.28.38-.1.14-.25.33-.23.51v.02h.07s.03-.01.05-.02c.04-.02.09-.06.06.01-.02.05-.03.09-.05.14-.03.09-.04.19-.05.28,0,.07,0,.14.02.21.03.07.09.12.16.12-.14.23-.2.5-.19.77,0,.03,0,.06.02.08v.02s.03.05.06.06c.04.02.08.02.12,0,.1-.02.19-.09.26-.17,0,.03,0,.06,0,.09,0,.02.02.04.03.06h-.02l.06.03h.1s.07-.04.11-.06h.02s-.05.09-.14.2l-.11.24v.03s0,.05-.02.07c-.03.12-.05.26-.07.41,0,.08,0,.16,0,.25v.03c-.06.06-.08.16-.09.24-.05.48-.04.97.04,1.45v.05c.02.07.05.14.09.21,0,.05,0,.09-.02.14v.02c0,.07-.02.12-.08.16-.1-.02-.18-.09-.24-.22,0-.03-.03-.06-.04-.1-.02-.04-.03-.08-.05-.12-.08-.15-.14-.17-.29-.11h-.03s-.08.05-.12.06c-.14.03-.13-.12-.16-.21-.05-.15-.14-.28-.19-.43-.09-.27-.08-.55-.09-.83,0-.24,0-.49,0-.73-.14.3-.2.62-.27.93-.03.11-.05.17-.16.22-.05.02-.11.02-.16,0-.07-.04-.08-.14-.08-.22,0-.21.02-.43.08-.63.04-.15.07-.3.14-.44-.12.22-.25.44-.37.66-.05.09-.02.18-.15.1-.1-.07-.16-.19-.17-.31-.07.14-.31.16-.41.03-.06-.08-.06-.18-.06-.27.02-.38.13-.76.32-1.1-.21.15-.35.39-.47.63-.09.19-.18.39-.16.6.02.21.2.42.41.4h.06s0,.09,0,.13c-.02.09.05.19.14.22.09.03.19.02.29.01l.02.02c-.1.11-.14.31-.08.46-.07,0-.11-.03-.17-.06-.08-.05-.18-.11-.27-.09-.06.01-.12.06-.16.1-.15.14-.24.3-.36.45-.05.06-.11.1-.19.09-.19-.04-.18-.38-.15-.52.02-.09.05-.17.05-.26,0,0-.08.05-.09.06-.03.03-.05.06-.06.1-.05.1-.1.2-.15.3-.04.06-.09.19-.15.22-.03.02-.07.01-.1,0s-.06-.04-.08-.06c-.19-.16-.21-.48-.14-.71,0-.05.03-.1,0-.14-.02-.01-.04-.02-.06-.02-.06,0-.17.1-.22.06-.03-.02-.04-.05-.06-.09,0-.02-.02-.04-.03-.05-.03-.05-.06-.07-.1-.08-.04,0-.08,0-.12.04-.04.03-.07.06-.1.1-.17-.06-.29-.23-.26-.41-.37.19-.77.32-1.18.39-.12.02-.29,0-.31-.11,0-.05.02-.11.05-.15.14-.21.33-.38.55-.5-.36.17-.74.29-1.13.35-.16.02-.38-.01-.39-.17,0-.07.04-.12.08-.18.15-.19.34-.35.54-.47-.33.21-.69.38-1.06.49-.15.05-.33.08-.46-.01-.09-.07-.1-.21-.04-.3-.09.08-.23.12-.34.15-.13.04-.27.05-.41.04-.05,0-.1,0-.13-.04-.12-.11.02-.32.12-.43-.15.15-.3.3-.41.49-.04.07-.08.18-.04.26.07.13.29.08.4.05.08-.02.15-.04.23-.06.06-.02.11-.03.17-.05.03-.01.15-.04.16-.07-.09.22.15.45.39.45s.45-.13.64-.26c-.08.11,0,.27.12.33.12.06.26.04.39.01.23-.05.46-.12.67-.21-.08.21-.39.37-.29.57.04.08.14.12.24.13.36.07.76-.01,1.06-.22.07-.05.14-.1.22-.1.06,0,.12.04.18.07.06.02.12.03.18.03-.07.09-.15.19-.26.27-.13.1-.29.15-.48.15-.08,0-.15,0-.2-.06s-.13-.05-.2,0c-.05.04-.09.09-.13.13-.03.04-.07.07-.1.11-.15.15-.32.25-.51.31h-.02s-.03.01-.04.01c-.02,0-.04-.02-.04-.03v-.13c0-.07-.03-.13-.09-.14-.04-.01-.1,0-.14.02l-.25.17c-.2.14-.4.28-.61.42-.07.05-.15.09-.24.13-.04.02-.09.04-.13.05-.07.01-.09,0-.11-.06,0-.02,0-.04-.02-.05,0-.03-.02-.06-.03-.09-.02-.04-.05-.07-.09-.08-.04,0-.08,0-.12.02-.04.03-.08.07-.12.1l-.03.03c-.21.19-.42.37-.66.51-.22.13-.46.2-.69.31h-.03s-.04-.01-.05-.03c-.1-.09-.2-.18-.3-.27-.06-.06-.17-.15-.25-.06l.03.02Zm3.12,2.17c-.16.04-.32.07-.48.11-.24.06-.48.12-.73.17-.19.04-.39.08-.61.1-.34.04-.67-.02-.97-.18-.36-.19-.68-.46-.98-.83h.85c.11,0,.18-.01.23-.06.04-.05.04-.13.02-.23-.03-.14-.06-.28-.09-.42-.02-.09-.04-.19-.06-.28v-.02s.06.04.09.07c.22.16.43.28.64.37.27.1.54.13.8.09.17-.02.34-.05.5-.08.09-.02.19-.03.28-.05.33-.05.61-.06.88-.03.37.04.67.17.92.4.39.34.61.77.67,1.28-.21-.32-.52-.49-.94-.51-.36,0-.71.05-1.03.13v-.03Zm-.14,1.69v-.09h0c.04-.14.12-.27.23-.38.1-.1.21-.2.31-.29h0c.06-.06.12-.11.19-.17.08-.07.17-.14.25-.21.11-.1.23-.21.29-.37.25,0,.48.16.6.39.08.16.12.35.11.57,0,.03,0,.07-.03.11-.08.24-.35.65-.58.87-.43-.03-.86-.16-1.39-.41h0s.02-.02.02-.02Zm2.13,2.71h0c-.4-.06-.72-.15-1.01-.28-.43-.2-.73-.5-.92-.94-.15-.35-.23-.72-.24-1.11v-.07s.06.03.09.04l.07.03c.36.15.64.24.93.29.28.05.57.06.84.05.55-.03,1.07-.13,1.61-.25l.48-.11c.54-.12,1.1-.24,1.65-.36.46-.1.92-.15,1.39-.15h.04c.49,0,1,.08,1.61.23.17.04.34.1.5.15.09.03.18.06.27.08.09.03.15.07.19.14.05.09.11.17.18.26.02.03.05.06.07.09l.02.03.04-.02c.08-.04.09-.12.09-.17,0-.03,0-.06.02-.07.02.01.03.02.05.03l.04.03h0v.4c.02.26.1.51.23.73.1.17.23.33.38.49,0,.01.03.03.04.04-.03,0-.06,0-.08-.01-.67-.17-1.33-.3-1.97-.39-.88-.13-1.69-.14-2.48-.05-.42.05-.88.15-1.44.31-.54.15-1.24.34-1.97.46-.19.03-.38.06-.57.09-.06,0-.11.01-.15,0h0Zm-.82,1.32c.14.07.27.15.41.22.11.06.22.12.33.18h0v.04c-.06,1.51-.05,2.88.04,4.17-.02,0-.03,0-.04-.01-.06-.04-.13-.08-.19-.12-.05-.03-.09-.06-.14-.09-.24-.89-.51-3.76-.41-4.39Zm-.46,4.21v-.03h0s.05.02.07.04c.12.07.23.15.35.22.24.16.49.31.73.46.08.05.12.11.12.2.08,1.09.22,2.22.43,3.36.17.93.39,1.85.67,2.75.25.82.52,1.7.91,2.47.77,1.56,1.67,3.01,2.85,4.3.03.04.06.07.1.12-.14.2-.59.68-.83.87-.03,0-.05-.03-.07-.06,0,0-.02-.02-.03-.04-1.3-1.25-2.35-2.72-3.11-4.37-.79-1.71-1.37-3.49-1.72-5.29-.19-.96-.32-1.93-.39-2.89-.05-.69-.08-1.36-.08-2v-.14.03Zm-5.14-7.74v-.05h0s.05.03.07.05c.87.62,1.8,1.25,2.77,1.87h.02s.06.05.09.07c.08.07.12.14.13.26.03.69.08,1.5.14,2.33.02.33.06.66.09.97.02.17.04.34.05.52v.07c0,.06.02.11,0,.17-.2-.12-.39-.25-.59-.37l-1.04-.66c-.65-.41-1.3-.83-1.95-1.24.05-1.52.11-2.79.18-3.98h.04Zm-1.33.28c-.55-.67-1.1-1.36-1.66-2.04.41.14.82.28,1.23.42.42.15.85.29,1.28.44.05.14.09.27.14.41l.07.19v.24c0,.09,0,.18-.02.26-.19.04-.79.07-1.03.06v.02Zm-.52,3.71h-.59c-.1,0-.17-.03-.23-.11-.21-.26-.43-.51-.64-.77-.13-.15-.26-.31-.39-.46-.15-.18-.3-.36-.46-.54l-.35-.41s-.03-.04-.05-.06c0,0,.03,0,.04.01,0,0,.02,0,.03.01.53.21,1.07.41,1.61.62.12.04.23.09.35.13.28.11.56.22.84.32.1.04.15.09.16.19,0,.09.04.18.06.26,0,.03.02.06.02.09.06.25.06.42,0,.71h-.03c-.13.01-.26,0-.38,0h.02Zm4.13,18.96h0s-.08-.08-.12-.13l-.02-.03c-.51-.64-.95-1.35-1.35-2.18-.39-.82-.73-1.73-1.06-2.85-.35-1.17-.62-2.38-.8-3.59-.12-.82-.22-1.67-.28-2.55-.07-1.02-.1-2.12-.08-3.37,0-.78.05-1.55.12-2.29.05-.62.11-1.24.17-1.85l.02-.21c0-.06,0-.12.03-.18h.02c1.05.67,2.1,1.33,3.14,2l.3.19s0,.01.02.02c0,0,0,.01,0,.02h0v.12c-.04,1.03-.03,2.11.02,3.2.07,1.46.23,2.76.49,3.97.31,1.48.78,2.97,1.4,4.44.48,1.14.98,2.16,1.53,3.11.53.92,1.04,1.63,1.6,2.24.18.2.37.38.55.57.09.09.18.18.27.27.04.04.08.08.12.12-.04.03-.09.04-.14.06h-.04c-.55.21-1.13.33-1.72.37-.57.04-1.12-.02-1.66-.16-.36-.09-.72-.24-1.16-.46-.44-.22-.87-.5-1.38-.87v.02Zm13.21,8.5c-.04.13-.15.24-.31.29v-.11h0c0-.06,0-.12,0-.18,0-.1,0-.19.04-.29h.07c.09.02.15.05.18.1s.03.11,0,.2h0Zm.12-2.08l-.02.32c-.03.4-.06.81-.11,1.21h-.06c-.17-.04-.33-.02-.48,0-.25.03-.52.04-.79,0-.07,0-.13-.03-.17-.05-.12-.06-.16-.13-.13-.26.02-.11.08-.21.17-.26.08-.05.18-.1.28-.14l.18-.06s.08-.02.13-.04c.07-.02.15-.05.21-.09.06-.03.1-.08.12-.14,0-.06,0-.13-.05-.19-.04-.06-.09-.11-.15-.14-.09-.06-.2-.13-.32-.18-.37-.17-.78-.27-1.21-.3-.17,0-.34-.02-.53-.02h-.14s0-.04.02-.05c.06-.11.13-.22.19-.33.08-.13.16-.26.23-.4.6-1.06,1.14-2.29,1.44-3.5.02-.07.04-.14.05-.21,0-.03,0-.07-.02-.1-.03-.02-.06-.05-.09-.07-.04,0-.07,0-.11,0-.04.02-.09.05-.13.08l-.04.03c-.68.44-1.25.8-1.66,1-.77.37-1.49.62-2.2.75-.65.12-1.34.15-2.03.08-1.64-.16-3.11-.79-4.49-1.92-.17-.14-.33-.28-.48-.43l-.13-.12h0c.41.25.8.43,1.2.58.78.29,1.59.38,2.48.29.45-.05.9-.14,1.34-.28.61-.19,1.19-.5,1.77-.94.54-.41,1.06-.89,1.58-1.46.04-.05.09-.09.13-.14h0c.83.87,1.74,1.7,2.75,2.48.02,0,.03,0,.05.02.02,0,.03.03.04.05.44.34.9.67,1.37.99-.03,1.22-.09,2.52-.2,3.96v-.02Zm-1.64.09c.07,0,.13.03.2.07.02,0,.04.02.05.02l.05.02c.12.05.23.1.32.19-.06.04-.13.05-.2.07-.05,0-.1.02-.15.04-.07.03-.15.06-.22.09l-.11.05c0-.09,0-.26.06-.56h0Zm2.77-3.85s-.03.02-.05.03c-.06-.02-.11-.05-.16-.09l-.03-.02c-.94-.59-1.88-1.29-2.8-2.06-.07-.06-.14-.12-.21-.19l-.07-.06c.03-.41.24-.71.64-.91.03,0,.07-.02.11-.03h.07s.08-.03.12-.03c.27-.06.43-.23.44-.49,0-.12.06-.19.15-.28.12-.11.23-.13.37-.08.31.12.51.05.7-.24,0,0,.02-.03.03-.04h.02c.06-.02.2.04.28.03.09,0,.18-.04.26-.05.2-.02.38-.11.58-.12h.16c.16.02.33.06.48.12.09.04.12.11.21.16.11.05.22,0,.3-.06.02,0,.03-.03.05-.05,0,0,.03-.03.04-.04.03-.03.06-.05.1-.07.08-.04.18-.04.25,0,.08.04.13.12.13.22,0,.02,0,.04,0,.06,0,.02-.02.03-.03.05s-.02.04-.03.06c-.08.16-.07.18.08.28.05.04.07.08.05.14-.02.05-.03.1-.05.15l-.02.06s-.02.05-.03.07c-.02.04-.04.08-.05.13-.05.16,0,.28.14.37.05.03.1.06.15.08l.04.02c.22.11.3.15.21.47-.03.09-.06.19-.09.28-.02.07-.05.13-.07.2s-.06.13-.13.18c-.08.06-.16.13-.24.19-.13.1-.26.21-.39.31-.51.38-1.01.75-1.58,1.16-.04.03-.07.05-.11.08h0Zm1.33,6.12c-.15-.04-.26-.18-.31-.4h.02s.05-.06.08-.07c.03-.02.07-.04.1-.06h.02s.02.03.02.04c.04.17.08.33.06.5h0Zm8.65-5.75c-.78.23-1.59.31-2.48.25-1.08-.08-2.19-.38-3.39-.91-.57-.25-1.13-.54-1.66-.85h-.02s-.1-.07-.15-.09c-.04-.02-.09,0-.12,0-.04.03-.06.07-.06.11,0,.07.02.14.03.21.25.98.56,1.83.92,2.61.26.55.55,1.1.86,1.62,0,.02.02.03.03.05.02.03.04.06.05.09-.08.02-.17.02-.25.02h-.04c-.24,0-.47.02-.71.04l-.4.02c-.22,0-.43.06-.63.16-.12.05-.22.12-.29.21-.13.16-.12.32.04.45.08.07.16.12.25.17.23.13.43.29.61.5.02.02.04.05.06.08v.02c-.04.15-.06.15-.19.14-.09,0-.17-.02-.24-.04-.42-.11-.81-.06-1.16.15,0,0-.02,0-.03,0h0s0,0,0-.03h0c0-.1,0-.19-.02-.28-.02-.52-.04-1.04-.06-1.56,0-.34-.03-.69-.04-1.03-.03-.83-.07-1.67-.11-2.51v-.16c.06-.04.12-.09.18-.13.88-.64,1.63-1.23,2.3-1.8.6-.52,1.17-1.05,1.67-1.58.03-.04.07-.07.11-.1.03.02.06.05.08.08,0,0,0,.02.02.03.27.35.56.69.88,1.01.87.87,1.91,1.42,3.1,1.64,1.23.23,2.35.14,3.41-.27.39-.15.76-.36,1.14-.64-1.1,1.14-2.29,1.9-3.65,2.3h-.02Zm-7.34,4.34c-.16-.16-.35-.3-.58-.44-.06-.04-.12-.08-.17-.12,0,0,0,0,0-.02v-.02c.06-.06.11-.1.15-.13.04-.03.1-.05.14-.06.06-.02.13-.04.2-.05h.02c.14.25.23.6.24.85h0Zm15.27-20.8c0,1.06-.06,2.11-.16,3.11-.12,1.27-.31,2.5-.57,3.65-.35,1.55-.79,2.89-1.37,4.1-.15.33-.33.66-.51.99-.49.87-1.19,1.62-2.08,2.24-.54.37-1.16.61-1.89.74-.96.16-1.92.09-2.87-.2-.07-.02-.13-.04-.21-.07,0-.03.04-.06.06-.08,0,0,.02-.02.03-.04.48-.52.93-1.06,1.34-1.6.82-1.08,1.51-2.27,2.1-3.64.79-1.83,1.4-3.76,1.8-5.75.18-.89.32-1.8.41-2.69.13-1.2.17-2.53.15-4.04v-.21c1.27-.79,2.48-1.59,3.5-2.28.02.06.02.12.02.19v.03c.05.9.1,1.81.15,2.71.06,1.05.08,1.98.07,2.84h.03Zm1.21-5.51c-.21,0-.41,0-.61-.02-.17,0-.34-.02-.51-.02-.06-.18-.06-.42,0-.56.03-.08.06-.15.09-.23.06-.14.11-.28.17-.42.03-.08.08-.12.16-.15.51-.17,1.03-.35,1.54-.52l.66-.22c.14-.05.29-.1.43-.15l.1-.04c-.68.78-1.36,1.55-2.04,2.32h0Z" style="fill: #e8a046; stroke-width: 0px;"/>
    <g>
      <path d="m25.4,22.94c.02.06.05.12.09.17.04.06.06.13.05.2-.02.25.1.42.32.54.25.13.5.13.76.01.05-.02.11-.05.15-.07.11.03.2.07.29.09.2.05.4.05.57-.07.1-.06.19-.08.29-.05.05.01.11.01.16.02.27.02.5-.07.68-.27.03-.03.05-.06.08-.08h.18c.18,0,.37,0,.55-.02.37-.03.64-.21.83-.52.03-.05.06-.1.09-.14.03,0,.05-.01.07-.01.44-.03.71-.27.86-.67.05-.14.07-.29.08-.44v-.16c.07-.06.13-.11.19-.16.2-.19.27-.42.22-.69-.02-.1-.06-.2-.1-.29-.02-.06-.06-.12-.09-.18.03-.07.06-.14.09-.22.06-.15.07-.3.03-.46-.07-.26-.23-.43-.5-.5-.26-.07-.49,0-.67.21-.04.05-.08.09-.1.14-.04.08-.11.12-.2.15-.25.07-.43.23-.5.48,0,.05-.03.08-.07.11-.09.08-.18.17-.27.24-.18.02-.36.04-.53.07-.1.02-.17.02-.26-.04-.13-.09-.28-.15-.43-.18-.43-.07-.82.03-1.16.3-.31.24-.54.55-.7.9-.11.24-.15.49-.11.76,0,.05.03.11,0,.17-.03-.01-.06-.03-.09-.04-.12-.07-.25-.08-.38-.07-.37.04-.6.41-.47.74v.03Zm5.48-3.7c.07-.06.16-.1.25-.1.21-.01.37.08.48.26.05.09.08.18.07.28,0,.11-.02.16-.09.27-.14-.1-.26-.21-.41-.29-.14-.08-.29-.13-.45-.19,0-.1.09-.15.15-.21v-.02Zm-3.62,1.37c.28-.22.6-.31.95-.28.25.02.45.14.62.31.21.2.36.45.48.7.02.05.05.09.08.14h.05l.02-.02s0-.07-.02-.1c-.08-.23-.18-.45-.32-.64-.03-.04-.06-.08-.08-.12,0-.05.05-.05.08-.06.18-.04.37-.04.55,0,.2.05.35.18.46.35.06.1.11.22.15.33.03.08.07.11.1.09.05-.03.03-.08.02-.12-.07-.32-.24-.57-.52-.75-.03-.02-.07-.04-.1-.07v-.02c0-.08.06-.1.13-.12.33-.06.64-.02.9.21.05.04.1.09.15.13h.06s0-.04.02-.07h0c-.2-.24-.43-.41-.74-.45-.08,0-.16,0-.24-.03,0-.13.07-.23.17-.3.13-.1.27-.15.44-.13.4.04.7.23.88.59.03.05.06.09.08.13.03.07.07.14.09.22.08.27.02.5-.21.68-.07.05-.17.08-.19.16-.02.07,0,.15,0,.23,0,.12,0,.23-.04.34-.06.25-.22.42-.46.52-.12.05-.24.08-.36.08-.06,0-.11.03-.14.08-.03.06-.07.12-.11.18-.15.22-.36.35-.63.38-.24.03-.47.02-.71,0-.02,0-.03-.02-.06-.03.02-.05.04-.09.07-.13.35-.64.27-1.42-.21-1.98-.14-.16-.3-.29-.49-.38-.31-.14-.63-.17-.95,0-.02,0-.03.01-.07.02.03-.06.07-.09.11-.12v.05Zm.09,1.37h0Zm.46.86c.08.1.14.21.2.31.02.04.03.09.06.12.02.02.06.03.08.02.03,0,.04-.04.05-.07,0-.02,0-.05,0-.08-.08-.19-.17-.36-.33-.5-.06-.05-.14-.1-.21-.14-.07-.03-.1-.07-.12-.14-.05-.16-.08-.33-.05-.5,0-.04,0-.08.03-.11.14-.35.4-.51.8-.41.14.03.27.11.38.19.03.02.07.06.09.1.19.53.15,1.03-.19,1.49-.12.16-.29.26-.48.32-.08.02-.16.05-.21.13-.04,0-.07-.01-.1-.02-.07-.02-.13-.01-.18.04l-.05.03c-.15.11-.31.14-.48.08-.06-.02-.12-.04-.19-.06.04-.13.09-.24.07-.37-.02-.12-.07-.23-.14-.33.22-.36.73-.41.99-.11h-.01Zm-1.28.09s0,0,.02.01c.1.08.19.18.23.3.03.13,0,.24-.09.34-.2.21-.6.24-.83.06-.14-.11-.19-.26-.12-.43.02-.05.05-.11.09-.15.08-.1.18-.15.3-.17.15-.02.28-.04.41.05h-.01Zm-.48-.56c.16.03.26.13.3.29-.15.03-.28.06-.4.09-.13.04-.21.14-.31.24-.11-.16-.12-.31-.02-.46.09-.13.26-.2.43-.16Z" style="fill: #e8a046; stroke-width: 0px;"/>
      <path d="m16.97,21.55s0,.1.02.15c.03.22.1.43.23.61.13.19.3.34.53.42.09.03.16.07.22.15.11.14.24.26.38.36.29.19.6.26.94.18.03-.01.06-.01.1-.02.03.02.06.04.08.06.03.02.05.04.07.06.27.22.57.3.91.28h.08c.11-.02.22,0,.33.03.2.07.4.07.6-.01.06-.02.11-.05.17-.02.13.06.23-.01.31-.1.02-.03.04-.06.06-.1.05.01.09.02.14.04.19.06.39.05.58-.01.15-.04.22-.13.24-.32,0-.13-.06-.23-.21-.3-.05-.02-.11-.04-.18-.07,0-.08-.03-.17-.04-.26-.03-.22-.15-.38-.36-.47-.04-.02-.09-.05-.13-.07v-.38c-.05-.73-.45-1.22-1.1-1.53-.22-.1-.45-.12-.69-.07-.17.04-.33.09-.48.16-.09.04-.17.06-.26.02-.19-.07-.38-.08-.58-.06h-.15c-.07-.12-.14-.24-.27-.32,0-.03,0-.04,0-.06,0-.21-.11-.37-.32-.45-.05-.02-.08-.06-.1-.11-.06-.11-.14-.21-.23-.29-.11-.1-.24-.15-.4-.14-.24.01-.43.12-.57.31-.12.16-.17.35-.16.55.02.22,0,.43-.05.65-.09.34-.02.66.23.92.05.06.08.11.08.19v.02Zm2.66-.91s.06-.07.1-.09c.23-.13.46-.21.73-.22.12,0,.24,0,.35.05.49.2.83.53,1,1.03.06.2.08.42.06.63v.03c-.07-.01-.06-.06-.06-.09,0-.2-.05-.38-.12-.57-.06-.16-.15-.3-.28-.42-.55-.49-1.28-.34-1.63.17-.2.29-.28.61-.24.96.04.39.22.73.45,1.04.05.07.11.08.15.05s.04-.08,0-.14c-.02-.04-.05-.07-.07-.11-.08-.12-.15-.24-.21-.38.05-.1.11-.18.26-.19,0,.07-.02.12-.02.18,0,.04.03.07.07.08.03,0,.08-.01.09-.05,0-.04.02-.09.03-.13.04-.15.11-.2.27-.21h.04c.11.03.18,0,.24-.11.09-.15.24-.23.43-.23.14,0,.26.05.35.15.02.02.04.05.06.08t.16.04s.04.08.07.11c.03.02.07.02.11.04.05.02.1.04.14.06.11.06.18.15.2.27.02.08.03.17.04.25,0,.04,0,.08,0,.11,0,.06.05.09.11.1s.13.03.19.05c.05.02.09.06.08.12,0,.07-.02.13-.09.15-.13.04-.25.07-.39.04-.09-.02-.18-.06-.26-.08-.06-.01-.12-.02-.17-.03-.06,0-.09.04-.08.11,0,.02,0,.04,0,.06,0,.05-.03.08-.07.08-.06,0-.12-.02-.18-.03-.07,0-.14-.01-.2.05-.08.08-.18.07-.28.05-.08-.01-.16-.04-.24-.07-.07-.03-.14-.03-.21-.02-.12.02-.23.02-.35.02-.24,0-.44-.11-.62-.26-.02-.02-.04-.04-.05-.06-.02-.11-.11-.19-.16-.29-.04-.07-.09-.15-.12-.22-.25-.48-.26-.98-.08-1.48.09-.25.24-.47.41-.68h-.03Zm1.01,1.43s-.04.02-.06.02c-.12,0-.23.04-.33.09-.1.04-.22.04-.32.07-.05.02-.1.06-.15.09-.07-.15-.09-.37-.05-.59.05-.24.14-.44.31-.6.32.14.5.36.55.69,0,.07.04.15.06.23h0Zm-3.79-1.68c.05-.17.06-.34.05-.52v-.27c.05-.23.18-.4.42-.47.15-.05.29-.02.4.09.04.03.07.07.1.11-.02.06-.06.04-.08.05-.09.03-.19.04-.28.08-.15.06-.26.17-.32.34.07,0,.09-.03.12-.06.11-.1.23-.17.38-.19.09-.01.17-.02.25.03.05.03.11.03.17.05.15.04.25.13.24.32-.05,0-.09.02-.15.03-.34.05-.58.25-.75.54,0,.02-.03.04-.03.07v.07s.05,0,.07-.02c.03-.03.04-.06.06-.09.05-.07.11-.13.17-.2.17-.17.39-.23.63-.22.14,0,.21.07.27.25-.17.13-.32.28-.39.49-.02.06-.05.12,0,.2.03-.02.05-.03.06-.05.03-.04.05-.09.08-.14.06-.08.12-.16.18-.23.1-.1.22-.16.36-.17.17-.02.34-.02.51.03.03,0,.06.02.1.04-.04.06-.08.13-.12.18-.19.28-.34.58-.4.92-.08.43,0,.84.18,1.22.06.11.12.21.19.34-.22.1-.41.08-.61.01-.16-.05-.29-.14-.41-.25-.08-.08-.15-.16-.23-.24-.06-.07-.13-.12-.22-.15-.35-.11-.56-.35-.65-.69-.03-.13-.05-.27-.05-.4,0-.1-.03-.16-.11-.23-.17-.13-.25-.3-.24-.51,0-.12.02-.25.06-.36h0Z" style="fill: #e8a046; stroke-width: 0px;"/>
      <path d="m23.91,21.54c-.16-.17-.34-.3-.55-.41-.18-.09-.37-.18-.55-.27-.03-.02-.07-.03-.11-.04-.06-.02-.12.03-.12.09,0,.05.02.1.04.15.11.24.23.48.38.7.23.34.53.57.93.68.06.02.12.04.18.06.05.23.03.43,0,.64,0,.05-.03.1-.03.15,0,.03,0,.08.04.1.14.1.28.19.43.28.05.03.11,0,.13-.05.02-.04.03-.07.03-.11,0-.11.03-.22.03-.33,0-.2.03-.4,0-.6-.02-.12-.03-.24-.05-.36.06-.04.12-.06.18-.1.2-.11.38-.23.53-.4.3-.33.47-.73.58-1.15v-.02c.02-.09-.03-.15-.12-.13-.09.01-.18.05-.26.07-.06.02-.12.07-.18.05v-.03l.03-.05c.14-.19.22-.4.25-.63.07-.5,0-.96-.4-1.32-.02-.02-.04-.05-.06-.07.07-.09.14-.17.2-.26.05-.06,0-.13-.08-.13-.1,0-.2.02-.29.02-.08,0-.17.03-.25,0,0-.02-.03-.04-.03-.05-.1-.19-.11-.19-.3-.1-.13.06-.23.07-.35-.01-.06-.04-.13-.06-.2-.05-.07,0-.09.07-.13.11-.04.05-.09.06-.14.04-.06-.02-.11-.05-.16-.07s-.1-.04-.15-.05c-.07-.02-.13.05-.11.12,0,.04.03.07.04.11.02.07.04.14.02.22-.04.03-.08.06-.12.09-.26.17-.43.4-.51.69-.03.12-.06.24-.06.36-.03.62.19,1.11.77,1.42.12.06.25.11.38.16.05.02.09.05.12.1.07.15.14.29.17.47-.03,0-.04,0-.04-.01-.02-.02-.05-.04-.07-.07h-.03Zm.66-3.46s.06.09.09.14c.03.06.09.08.15.07.09-.01.18-.02.27-.03.03.07-.04.1-.06.14-.03.06-.03.1,0,.14.03.03.06.05.09.08.27.24.39.54.4.9,0,.18-.02.35-.07.51-.16.47-.5.73-.98.82,0,0-.02,0-.04-.02.03-.05.06-.1.09-.14.13-.18.24-.37.33-.58.1-.24.15-.49.15-.75s-.07-.49-.21-.7c-.09-.13-.19-.25-.29-.37-.03-.04-.07-.08-.12-.14.09-.03.14-.06.21-.08h-.02Zm.22,2.9c-.11.12-.21.22-.23.38-.05-.1-.11-.19-.17-.3.12-.03.22-.06.33-.08h.07,0Zm-.85-2.75c-.31.16-.5.41-.58.75-.07.32-.06.63.02.94.07.28.19.54.33.79.03.04.05.09.07.14v.02h-.02c-.71-.22-.97-.66-.99-1.22,0-.2.02-.39.09-.57.08-.21.2-.38.39-.5.03-.02.05-.04.08-.05.12-.07.19-.16.14-.31v-.06h.06c.15.09.27.06.39-.06l.06-.05c.06.02.12.03.14.1-.06.02-.12.05-.18.08Zm.17,3.05c-.03-.06-.05-.12-.07-.17.03-.04.05-.02.07-.01.2.1.29.27.29.49,0,.06,0,.12.02.18,0,.04.03.07.08.08.03,0,.08,0,.1-.03.03-.02.05-.06.06-.1.04-.12.08-.24.12-.37,0-.05.03-.1.06-.14.23-.25.51-.45.84-.55h.06v.08c-.06.26-.17.5-.31.73-.17.27-.4.46-.7.57-.07.03-.15.06-.21.08-.05.12-.03.22,0,.32.05.28.05.57.03.85,0,.06,0,.12-.05.16-.09-.03-.16-.09-.24-.14,0-.06,0-.11.02-.17.05-.19.04-.39.02-.58,0-.14-.06-.19-.2-.22-.08-.02-.15-.04-.23-.05-.28-.07-.5-.23-.65-.47-.12-.2-.23-.39-.34-.59-.02-.02-.02-.06-.03-.08.03-.04.06-.01.08,0,.11.05.22.11.34.16.36.18.63.45.83.8l.02.03s.05.03.07.03c.03,0,.06-.03.07-.06,0-.05,0-.1,0-.15,0-.23-.07-.45-.15-.66v-.02Z" style="fill: #e8a046; stroke-width: 0px;"/>
      <path d="m22.06,27.36c.05.02.1.02.15.02.04,0,.07.02.11.04,0,.08-.03.15-.04.22-.09.42-.14.86-.16,1.29,0,.12.04.19.15.25.25.12.51.23.79.26.06.01.13.03.2.04,0,.06,0,.12,0,.17-.03.18-.06.37-.09.55,0,.07,0,.13.04.19.18.23.36.46.55.68.1.12.22.12.31-.01.13-.19.27-.38.41-.56.15-.21.15-.16.11-.4v-.02s-.02-.1-.02-.15-.03-.1,0-.15c.18-.01.36-.02.55-.04.11.14.21.28.31.42.06.08.13.13.23.14.11.01.22.04.34.05.21.02.41-.03.6-.12.07-.03.12-.08.16-.15.03-.04.02-.09-.02-.13-.03-.03-.06-.05-.09-.07-.09-.07-.18-.13-.28-.19-.2-.13-.3-.31-.28-.55,0-.15,0-.3.02-.45,0-.23,0-.46-.04-.69-.1-.57-.24-1.13-.38-1.69-.03-.13-.09-.26-.15-.39-.13-.29-.36-.47-.67-.54-.28-.07-.57-.06-.85-.02-.35.05-.68.18-1,.35-.3.16-.57.36-.85.56-.12.08-.17.18-.17.31,0,.21,0,.42-.03.63,0,.09.03.13.11.17v-.02Zm1.22,1.97c-.19.02-.78-.21-.89-.32.05-.01.11-.03.16-.04h0c.03.07.63.25.75.23,0,.05,0,.1-.02.13Zm.55,1.54c-.14-.17-.28-.35-.42-.52-.05-.05-.07-.11-.05-.18.09-.42.11-.85.1-1.27,0-.02,0-.04.02-.08.14-.01.27-.02.4-.02v2.12s-.03-.03-.04-.04h-.01Zm.69-1.32s-.02-.07-.03-.1c.15.05.37.04.48-.03,0,.03.02.06.03.1-.14.09-.38.09-.49.03h.01Zm-2.36-3.05s.05-.06.08-.08c.29-.22.59-.43.92-.6s.68-.28,1.05-.31c.21-.02.41,0,.62.03.24.05.42.17.52.39.07.14.13.29.17.44.12.51.23,1.01.34,1.52.07.32.08.65.05.98,0,.14,0,.28,0,.41,0,.21.11.37.29.5.09.06.18.12.26.18.03.02.05.04.08.07-.11.07-.22.1-.33.11-.17.02-.33,0-.5-.03-.06-.02-.11-.04-.15-.09-.21-.24-.37-.52-.46-.82,0-.04-.02-.09-.02-.13,0-.09-.04-.14-.11-.18-.12-.06-.24-.12-.36-.17-.31-.11-.64-.12-.97-.09-.39.03-.77.09-1.14.18-.05.01-.1.02-.16.03v-.13c.03-.43.09-.85.2-1.27.02-.09.03-.12,0-.15.25,0,.49-.34.71-.47.39-.24.83-.39,1.29-.37.08,0,.17.02.25.04.1.07.19.16.27.26.15.2.25.43.32.68.09.3.13.62.16.93,0,.04,0,.08.03.12l.02-.06c.04-.42,0-.84-.12-1.25-.05-.16-.12-.31-.21-.45-.3-.46-.76-.69-1.36-.6-.3.04-.58.16-.84.31s-.49.34-.71.55c-.05.04-.09.09-.17.16v-.66.02Z" style="fill: #e8a046; stroke-width: 0px;"/>
      <path d="m25.59,33.71h.11l-.02-.05c-.02-.08-.04-.17-.04-.27,0-.08,0-.18.04-.26l.02-.05h-.76v-.05h.37v-.05c-.04-.08-.05-.13-.05-.23s.02-.18.04-.27v-.05h-.43l.48-.04-.48-.16-.05.2h-.37v.03c-.03.1-.05.19-.05.29s0,.16.03.25v.03h.25v.05h-.54v-.05h.28v-.05c-.04-.08-.04-.13-.04-.23s.02-.18.04-.27v-.05h-.35l.48-.04-.47-.16-.05.2h-.45v.03c-.04.1-.05.19-.05.29s0,.15.03.25v.03h.33v.05h-.81v.03c-.04.08-.05.18-.05.28v.13h-.83l.17.42h.22l.27.37h2.73l.54-.53h-.5l-.05-.07h.01Zm-2.25.1l-.11-.1h.13l-.02.1Zm.34,0h-.21l.02-.1h.21l-.02.1Zm.08-.3h-.52s-.02-.1-.02-.17,0-.14.02-.16h.52s-.02.09-.02.16,0,.13.02.17Zm-.03-.65s-.02-.09-.02-.16c0-.08,0-.14.02-.17h.52s-.02.09-.02.17c0,.07,0,.13.02.16h-.52Zm.38.94h-.16l.02-.1h.16v.1h-.02Zm.46,0h-.19l.02-.1h.19l-.02.1Zm.06-.33v.03h-.52s0-.09-.02-.15v-.09s.02-.09.03-.09h.51s-.02.09-.02.16c0,.05,0,.09,0,.14h.01Zm.35-.3h.52s-.02.09-.02.16,0,.13.02.17h-.52s-.03-.1-.02-.17c0-.07.02-.14.02-.16Zm-.39-.32s-.02-.09-.02-.16c0-.08,0-.14.02-.17h.51s-.02.09-.02.17c0,.07,0,.13.02.16h-.51Zm.41.94h-.18l.02-.1h.17l-.02.1h0Zm.27,0l.02-.1h.19l.06.1h-.27Z" style="fill: #e8a046; stroke-width: 0px;"/>
      <path d="m25.3,37.59c-.02-.08-.03-.16-.03-.24,0-.07,0-.16.03-.23l.02-.1h-.25v-.26h-.31v.26h-.34v-.26h-.31v.26h-.35v-.26h-.31v.26h-.17l-.02.07c-.02.08-.03.17-.04.25l-.29.29h-.48l.3.49.42.26h1.99l.5-.32.11-.43h-.47v-.04h0Zm-1.54-.08h-.27v-.28h.27v.28Zm.64,0h-.28v-.28h.27v.28h0Zm.64,0h-.27v-.28h.27v.28Z" style="fill: #e8a046; stroke-width: 0px;"/>
    </g>
    <g>
      <path d="m15,15.92s-.03-.07-.04-.11c-.16.05-.32.11-.48.17-.11-.26-.22-.53-.33-.79-.05.02-.09.03-.13.05.13.3.26.59.38.89.2-.08.4-.15.6-.22h0Z" style="fill: #e8a046; stroke-width: 0px;"/>
      <path d="m15.29,15.83c-.1-.31-.21-.61-.31-.92-.05.01-.09.03-.14.04.11.3.22.61.32.91.04-.01.09-.03.13-.04h0Z" style="fill: #e8a046; stroke-width: 0px;"/>
      <path d="m15.91,15.65c.13-.03.21-.09.25-.18.03-.06.03-.12.02-.18-.02-.07-.06-.12-.11-.15-.03-.02-.08-.03-.13-.03.03-.02.05-.05.07-.07.03-.05.03-.1.02-.16,0-.05-.04-.09-.08-.12-.07-.05-.17-.06-.29-.03-.15.04-.3.08-.45.13.1.31.2.62.3.92.13-.04.27-.08.41-.11v-.02Zm-.54-.74c.08-.02.17-.05.25-.07.06-.02.11-.02.14-.02.06,0,.1.04.12.1.02.06,0,.11-.04.15-.03.02-.07.04-.13.06-.08.02-.17.04-.25.07-.03-.09-.06-.19-.09-.28h0Zm.39.31c.06-.02.11-.02.14-.02.07,0,.12.05.14.12,0,.04,0,.08,0,.11-.02.05-.07.09-.16.11-.1.03-.19.05-.29.08-.03-.11-.07-.22-.1-.33.09-.03.18-.05.27-.07Z" style="fill: #e8a046; stroke-width: 0px;"/>
      <path d="m17.16,15.39s0-.08-.02-.11c-.21.03-.41.07-.61.11-.02-.11-.05-.21-.07-.32.19-.04.38-.07.57-.11,0-.04,0-.07-.02-.11-.19.03-.38.07-.57.11-.02-.1-.05-.19-.07-.29.21-.04.42-.08.63-.12,0-.04-.02-.08-.02-.12-.26.04-.52.09-.78.15.08.31.16.63.23.94.24-.05.49-.1.74-.14h0Z" style="fill: #e8a046; stroke-width: 0px;"/>
      <path d="m30.99,14.63c0-.11-.03-.19-.13-.23-.05-.02-.12-.04-.2-.04-.16,0-.33-.01-.49-.02,0,.31-.02.62-.03.94h.13c0-.13,0-.27,0-.4.1,0,.21,0,.31.01.06,0,.1.01.12.02.04.02.07.07.06.13v.26c.06,0,.12,0,.17.01v-.02s-.03-.03-.03-.06v-.21c0-.06,0-.09-.02-.12-.02-.02-.05-.05-.08-.06.05-.02.08-.04.11-.08.03-.03.05-.08.05-.13h.02Zm-.21.13s-.09.03-.16.03c-.11,0-.21-.01-.32-.01,0-.11,0-.21,0-.32.12,0,.23,0,.35.01.05,0,.09.01.11.03.05.03.07.07.07.14,0,.06-.03.1-.07.13h.01Z" style="fill: #e8a046; stroke-width: 0px;"/>
      <path d="m31.66,14.44c-.14-.02-.28-.04-.42-.05-.04.31-.07.62-.1.93.13.01.26.03.39.04.17.02.29-.03.38-.16.05-.07.09-.16.11-.26.02-.13,0-.23-.05-.33-.06-.1-.17-.17-.31-.18h0Zm.21.51s0,.06-.03.1c-.02.06-.05.1-.08.13-.04.04-.09.07-.14.08h-.11c-.08,0-.16-.02-.23-.03.03-.24.06-.48.09-.71.08,0,.17.02.25.03.11.01.19.06.23.13s.05.16.03.28h0Z" style="fill: #e8a046; stroke-width: 0px;"/>
      <path d="m32.4,14.68c.2.04.4.08.6.13,0-.04.02-.07.03-.11-.25-.06-.5-.11-.75-.16-.06.31-.12.61-.18.92.24.04.47.09.7.15,0-.04.02-.07.03-.11-.19-.05-.39-.09-.58-.13.02-.1.04-.21.06-.31.18.03.36.07.54.12,0-.04.02-.07.03-.11-.18-.04-.36-.08-.55-.12.02-.09.04-.19.06-.28h.01Z" style="fill: #e8a046; stroke-width: 0px;"/>
      <path d="m33.65,15.66c-.08-.29-.17-.58-.26-.87-.05-.01-.11-.03-.16-.04-.08.3-.17.6-.25.91.04.01.08.02.12.03.07-.24.14-.49.21-.73.1.29.19.58.27.87.05.01.09.03.14.04.1-.3.2-.59.31-.89-.04-.01-.09-.03-.13-.04-.08.24-.16.48-.24.72h0Z" style="fill: #e8a046; stroke-width: 0px;"/>
      <path d="m28.34,14.43c-.09.16-.17.32-.25.49-.12-.13-.24-.27-.37-.4-.06,0-.11.02-.17.03.16.16.33.32.48.49.02.12.04.25.06.37.04,0,.09-.01.13-.02-.02-.12-.03-.25-.05-.37.1-.2.21-.41.33-.61-.06,0-.11.01-.17.02h0Z" style="fill: #e8a046; stroke-width: 0px;"/>
      <path d="m29.47,14.32c-.18,0-.32.07-.4.19-.07.1-.09.21-.09.33,0,.14.06.26.14.34.09.09.22.13.37.12.16,0,.29-.06.37-.17.08-.09.12-.21.12-.35,0-.13-.03-.23-.1-.32-.09-.11-.23-.16-.41-.15h0Zm.29.75c-.05.08-.14.12-.26.13-.12,0-.22-.03-.28-.09-.06-.07-.09-.15-.1-.26,0-.13.02-.23.09-.3.07-.07.15-.11.26-.11s.2.03.26.09c.07.07.1.15.1.26s-.03.2-.08.28h.01Z" style="fill: #e8a046; stroke-width: 0px;"/>
      <path d="m18.2,15.24s-.04-.02-.05-.05c0-.02,0-.04-.02-.08,0-.04,0-.09-.02-.13,0-.06-.02-.1-.05-.12-.02-.02-.06-.04-.1-.05.04-.03.08-.06.1-.1s.03-.09.02-.15c0-.11-.07-.18-.18-.21-.06-.02-.13-.02-.21-.01-.17.02-.34.04-.5.07.06.32.11.64.17.95.04,0,.09-.01.14-.02-.02-.14-.04-.27-.06-.41.11-.01.21-.03.32-.04h.13c.05.02.08.06.09.12,0,.05.02.11.03.16,0,.04,0,.06,0,.07l.02.03c.06,0,.11-.01.17-.01v-.02h0Zm-.3-.51s-.09.05-.16.05c-.11.01-.22.03-.33.04-.02-.11-.04-.22-.06-.33.12-.02.24-.03.36-.04h.12c.06.02.09.06.1.13,0,.06,0,.11-.04.14h0Z" style="fill: #e8a046; stroke-width: 0px;"/>
      <path d="m18.53,14.39c.02.28.05.57.07.85h.14c-.02-.28-.04-.57-.06-.85.12,0,.25,0,.37-.01v-.12c-.3,0-.6.02-.9.04,0,.04,0,.08,0,.11.12,0,.25-.02.37-.02Z" style="fill: #e8a046; stroke-width: 0px;"/>
      <path d="m19.17,15.22c.04-.1.07-.19.11-.29h.42c.04.1.07.2.1.29h.16c-.12-.33-.25-.66-.39-.98h-.17c-.13.32-.26.64-.37.97h.14,0Zm.31-.82c.06.14.12.29.17.43h-.34c.06-.14.11-.29.17-.43Z" style="fill: #e8a046; stroke-width: 0px;"/>
      <path d="m20.92,15.1c.05-.08.08-.17.09-.27,0-.13-.02-.25-.09-.34-.08-.1-.2-.16-.35-.18-.15-.01-.31-.02-.46-.03,0,.32,0,.65-.03.97.14,0,.28.02.43.03.18.02.32-.04.4-.18h.01Zm-.68.04c0-.25.02-.5.03-.75.09,0,.18.01.27.02.12.01.21.05.26.13.05.07.07.17.06.29,0,.03,0,.06-.02.1-.02.06-.04.11-.07.14-.04.04-.09.07-.15.09h-.12c-.09,0-.17-.01-.26-.02Z" style="fill: #e8a046; stroke-width: 0px;"/>
    </g>
    <path d="m18.51,6.56c-.08-.09-.08-.25-.03-.35.02-.03.04-.06.06-.08s.06-.03.08-.06c-.1.11-.31.07-.37-.07-.06-.13.02-.31.16-.36-.12.02-.22.08-.33.12s-.24.05-.33-.02-.1-.21-.06-.31.12-.19.2-.27c-.18.04-.34.22-.52.16-.18-.06-.2-.31-.1-.47.09-.16.26-.27.36-.42-.27.13-.56.23-.85.3-.1.02-.22.04-.3-.03-.06-.05-.05-.15,0-.2l-.41.14c-.1.03-.2.06-.29.03s-.17-.15-.12-.23c-.15.09-.31.18-.48.16-.1-.01-.18-.06-.23-.15-.06-.11,0-.15.08-.23-.16.06-.33.27-.28.45.04.13.2.21.34.19.14-.01.27-.09.39-.16,0,.12.09.21.21.26-.3.25-.54.56-.71.9-.05.1-.09.2-.09.31s.05.22.14.28.24.02.28-.08c-.04.11,0,.24.1.31s.23.08.33.02c-.02.13-.02.27.05.39.06.12.21.2.34.16-.19.06.49.72.42.23-.03-.17-.16-.26-.14-.46.02-.19.13-.37.23-.54.11-.19.23-.38.34-.58-.3.37-.56.78-.77,1.21-.19-.27-.05-.65.11-.94.15-.27.31-.53.48-.78-.42.25-.56.79-.87,1.16-.04.05-.12.11-.18.08-.02-.51.16-1.03.5-1.42-.28.23-.49.52-.72.8-.07.09-.16.19-.28.21-.09-.24.02-.5.17-.72.12-.17.25-.33.34-.52.03,0,.06.01.09,0,.18,0,.34-.1.49-.2,0,.09.13.12.22.11.18,0,.37,0,.55-.01-.13.12-.16.32-.08.47.08.15.28.23.45.19-.14.16-.03.44.17.5.17.05.36-.03.48-.17-.02.02-.03.05-.04.07s-.02.05-.03.08c-.02.05-.03.11-.02.17,0,.05.03.1.06.14s.06.07.11.09c.02,0,.04.01.07.01.06,0,.1-.02.15-.06-.03.05-.06.1-.09.16-.03.05-.05.11-.06.17-.02.14.1.26.24.28.08.01.16,0,.22-.04.15-.09.24-.26.31-.42-.12.16-.39.16-.51.01l-.03.03Z" style="fill: #e8a046; stroke-width: 0px;"/>
    <path d="m32.33,3.4s.03,0,.04,0c.06-.02.11-.07.12-.14,0-.05,0-.1-.04-.14-.03-.05-.08-.1-.13-.14-.04,0-.08-.03-.12-.05,0,0-.05,0-.16-.04.05.03.1.07.12.12.02.05,0,.12-.04.15-.04.03-.1.02-.15,0-.12-.02-.23-.05-.35-.07.14.12.29.21.46.27.07.03.16.05.24.03v.02Z" style="fill: #e8a046; stroke-width: 0px;"/>
    <path d="m30.11,6.96c.03.06.04.12.06.19,0-.07-.02-.15-.03-.22,0,.01-.02.03-.03.04h0Z" style="fill: #e8a046; stroke-width: 0px;"/>
    <path d="m8.89,7.56c.25-.09.54.02.79-.07.17-.07.29-.22.4-.36.21-.28.42-.56.63-.83-.3.28-.63.53-.98.74-.09.05-.19.1-.29.1s-.2-.11-.17-.2c0-.04.05-.08.08-.11.1-.09.19-.18.29-.27-.82.54-1.58,1.2-2.29,1.86-.38.35-1.13.94-1.12,1.52.34-.1.74-.65,1.01-.89.44-.41.88-.82,1.32-1.23.1-.1.21-.19.34-.24v-.02Z" style="fill: #e8a046; stroke-width: 0px;"/>
    <path d="m10.91,5.85c.11,0,.21.05.32.08.28.08.58,0,.83-.14.25-.15.45-.36.65-.57-.24.16-.49.29-.76.4-.09.04-.18.07-.27.06-.09,0-.19-.06-.21-.15-.02-.07,0-.14.04-.2.08-.15.22-.28.38-.35-.43.2-1.64.69-1.7,1.21.16-.01.31-.16.46-.25.08-.05.17-.1.27-.1h-.01Z" style="fill: #e8a046; stroke-width: 0px;"/>
    <path d="m9.93,9.4c.03-.05.06-.1.1-.15-.03.04-.09.07-.13.09-.04.03-.09.05-.14.08-.14.07-.29.11-.44.13h-.22c-.08,0-.16,0-.23-.04-.08-.04-.09-.13-.08-.21,0-.02,0-.04.02-.05.04-.09.09-.17.17-.24-.27.18-.57.31-.89.37-.05,0-.1.02-.15,0-.09-.05-.05-.19,0-.28.26-.41.58-.76.94-1.08-.38.25-.73.55-1.04.88-.13.14-.26.32-.2.5.05.15.24.23.4.22.17-.01.32-.09.46-.17.08-.04.15-.08.23-.13-.05.11-.08.24-.08.36,0,.1.05.19.15.23.07.02.14.01.21,0,.34-.08.65-.25.9-.49h0s.02-.02.02-.02Z" style="fill: #e8a046; stroke-width: 0px;"/>
    <path d="m9.91,9.5v-.03c-.05.1-.08.22-.03.32.06.11.19.15.31.14.12-.01.23-.08.33-.15.29-.21.53-.49.68-.82-.32.23-.67.42-1.04.58-.09.04-.23.05-.25-.04Z" style="fill: #e8a046; stroke-width: 0px;"/>
    <path d="m10.46,8.81c.23-.2.54-.4.72-.64-.31-.09-.74.37-.94.56-.09.09-.19.2-.18.33.15-.04.28-.14.4-.25Z" style="fill: #e8a046; stroke-width: 0px;"/>
    <path d="m12.21,8.57c-.05-.36-.74.33-.82.41-.07.07-.15.17-.11.26.17-.04.95-.47.93-.67h0Z" style="fill: #e8a046; stroke-width: 0px;"/>
    <path d="m30.11,6.96c.03.06.04.12.06.19,0-.07-.02-.15-.03-.22,0,.01-.02.03-.03.04h0Z" style="fill: #e8a046; stroke-width: 0px;"/>
    <path d="m13.13,4.36s.11.03.17.02c.12-.02.26-.05.35-.13-.13-.15-.08-.29.05-.42.28-.28.62-.51.99-.65-.05.02-.12-.03-.12-.09s.04-.11.07-.15c.26-.31.63-.54,1.03-.63,0,0,.06.03.07.04l.09.03c.06,0,.12,0,.18,0,.09,0,.26-.07.3-.17-.02,0-.04-.02-.04-.04,0-.03.02-.06.04-.09.07-.07.16-.14.23-.21,0,0,.03-.02.02-.04,0,0-.21.07-.22.08-.03.02-.34.14-.41.17-.28.11-.57.19-.86.3-.27.11-.54.24-.76.45-.05.05-.1.11-.12.18-.02.07.02.15.09.17-.47.15-.88.46-1.15.87-.06.1-.11.25,0,.31h0Z" style="fill: #e8a046; stroke-width: 0px;"/>
    <path d="m12.36,6.45c.11-.03.21-.1.31-.16.03-.02.06-.03.09-.01.02.02.02.05.03.08,0,.14.15.24.29.25s.28-.05.39-.13c0,.03,0,.05,0,.08.06.09.17.13.28.14.11,0,.21-.03.32-.06.13-.04.27-.09.34-.2-.07.07-.15.14-.24.12-.1-.01-.16-.14-.15-.24.02-.1.08-.19.15-.27-.18.11-.37.19-.57.25-.08.02-.17.04-.26.02-.08-.02-.16-.1-.15-.18,0-.05.03-.09.07-.13.05-.06.11-.1.18-.13-.17.07-.33.13-.5.2-.12.05-.25.1-.38.09-.13,0-.27-.1-.29-.23,0-.05,0-.1.03-.15-.02.01-.04.03-.06.04-.08.06-.17.14-.21.23-.04.1-.05.22.02.3.07.09.21.11.33.08h0Z" style="fill: #e8a046; stroke-width: 0px;"/>
    <path d="m15.78,2.68c.02-.08.08-.15.15-.2-.19.06-.35.21-.43.38,0,.03-.02.06,0,.08,0,0,.03.02.04.02.15.03.3.02.44,0-.05,0-.11,0-.15-.04-.06-.05-.08-.15-.06-.23h0Z" style="fill: #e8a046; stroke-width: 0px;"/>
    <path d="m39,7.17c-.1,0-.2-.04-.29-.1-.35-.21-.68-.46-.98-.74.21.28.42.56.63.83.11.15.23.3.4.36.25.09.54-.02.79.07.13.05.24.14.34.24l1.32,1.23c.26.25.66.8,1.01.89,0-.58-.74-1.17-1.12-1.52-.71-.66-1.47-1.32-2.29-1.86.1.09.19.18.29.27.03.03.07.06.08.11.03.1-.07.19-.17.2v.02Z" style="fill: #e8a046; stroke-width: 0px;"/>
    <path d="m36.37,5.83c.25.15.56.22.83.14.1-.03.21-.08.32-.08.1,0,.18.05.27.1.15.09.3.23.46.25-.06-.51-1.28-1.01-1.7-1.21.16.07.29.2.38.35.03.06.06.13.04.2-.02.09-.12.14-.21.15-.09,0-.18-.03-.27-.06-.27-.11-.52-.24-.76-.4.2.21.4.42.65.57h-.01Z" style="fill: #e8a046; stroke-width: 0px;"/>
    <path d="m35.19,6.05s.06.08.07.13c0,.08-.07.16-.15.18-.08.02-.17,0-.26-.02-.2-.06-.4-.14-.57-.25.07.08.14.17.15.27.02.1-.04.22-.15.24-.09.01-.17-.06-.24-.12.07.11.21.16.34.2.1.03.21.06.32.06.14,0,.2-.06.26-.17.03-.04.04-.02.09,0,.09.05.2.08.31.08.14-.01.28-.11.29-.25,0-.03,0-.06.03-.08s.06,0,.09.01c.1.06.2.13.31.16.11.03.25.01.33-.08.07-.08.07-.2.02-.3s-.13-.17-.21-.23c-.02-.02-.04-.03-.06-.04.02.05.04.1.03.15-.02.13-.15.22-.29.23s-.26-.04-.38-.09c-.19-.08-.38-.15-.58-.23.1.03.19.09.26.17v-.02Z" style="fill: #e8a046; stroke-width: 0px;"/>
    <path d="m40.38,9.66c.17.01.35-.07.4-.22.06-.18-.07-.36-.2-.5-.31-.33-.65-.64-1.04-.88.36.32.68.67.94,1.08.06.09.1.23,0,.28-.04.03-.1.02-.15,0-.31-.06-.61-.19-.88-.37.05.04.09.1.13.16.03.04.05.09.08.13.08.05.16.09.24.14.14.08.29.16.46.17h.02Z" style="fill: #e8a046; stroke-width: 0px;"/>
    <path d="m38.05,7.71s-.03-.02-.05-.02c.06,0,.11.01.17.01.04,0,.09,0,.13-.03.1-.06.06-.21,0-.31-.11-.19-.26-.33-.41-.49.1.11.25.32.12.43-.04.03-.09.04-.13.04-.26.01-.52-.05-.74-.18.05.08.04.22-.05.29-.13.09-.31.06-.46.01-.38-.11-.73-.28-1.06-.49.2.13.39.29.54.47.04.05.08.11.08.18,0,.16-.23.19-.39.17-.39-.06-.78-.18-1.13-.35.22.12.41.29.55.5.03.05.06.1.05.15-.02.12-.19.14-.31.11-.41-.07-.81-.21-1.18-.39.04.22-.17.44-.4.43.11.07.26.08.39.03.06-.03.11-.07.18-.07.08,0,.15.05.22.1.3.21.7.29,1.06.22.09-.02.19-.05.24-.13.1-.2-.2-.36-.29-.57.22.09.44.16.67.21.13.03.27.05.39-.01.12-.06.2-.22.12-.33.19.13.4.27.64.26.23,0,.47-.24.39-.45.16.09.34.15.52.18,0,0-.03,0-.04.02.12-.1,1.14,1.13,1.49,1.03-.16-.45-.89-.79-1.29-1.01h-.02Z" style="fill: #e8a046; stroke-width: 0px;"/>
    <path d="m37.26,8.21c.18.24.48.44.72.64.12.1.25.21.4.25,0-.13-.09-.24-.18-.33-.2-.19-.63-.65-.94-.56Z" style="fill: #e8a046; stroke-width: 0px;"/>
    <path d="m36.22,8.61c-.03.19.76.62.93.67.04-.09-.03-.19-.11-.26-.08-.08-.77-.77-.82-.41h0Z" style="fill: #e8a046; stroke-width: 0px;"/>
    <path d="m32.89,3s.03,0,.04-.02c.02-.02,0-.05,0-.08-.08-.18-.24-.32-.43-.38.07.05.13.12.15.2.02.08,0,.18-.06.23-.04.04-.09.04-.15.04.14.03.3.04.44,0h0Z" style="fill: #e8a046; stroke-width: 0px;"/>
    <path d="m12.36,6.45c.11-.03.21-.1.31-.16.03-.02.06-.03.09-.01.02.02.02.05.03.08,0,.14.15.24.29.25s.28-.05.39-.13c0,.03,0,.05,0,.08.06.09.17.13.28.14.11,0,.21-.03.32-.06.13-.04.27-.09.34-.2-.07.07-.15.14-.24.12-.1-.01-.16-.14-.15-.24.02-.1.08-.19.15-.27-.18.11-.37.19-.57.25-.08.02-.17.04-.26.02-.08-.02-.16-.1-.15-.18,0-.05.03-.09.07-.13.05-.06.11-.1.18-.13-.17.07-.33.13-.5.2-.12.05-.25.1-.38.09-.13,0-.27-.1-.29-.23,0-.05,0-.1.03-.15-.02.01-.04.03-.06.04-.08.06-.17.14-.21.23-.04.1-.05.22.02.3.07.09.21.11.33.08h0Z" style="fill: #e8a046; stroke-width: 0px;"/>
    <path d="m15.78,2.68c.02-.08.08-.15.15-.2-.19.06-.35.21-.43.38,0,.03-.02.06,0,.08,0,0,.03.02.04.02.15.03.3.02.44,0-.05,0-.11,0-.15-.04-.06-.05-.08-.15-.06-.23h0Z" style="fill: #e8a046; stroke-width: 0px;"/>
    <path d="m13.13,4.36s.11.03.17.02c.12-.02.26-.05.35-.13-.13-.15-.08-.29.05-.42.28-.28.62-.51.99-.65-.05.02-.12-.03-.12-.09s.04-.11.07-.15c.26-.31.63-.54,1.03-.63,0,0,.06.03.07.04l.09.03c.06,0,.12,0,.18,0,.09,0,.26-.07.3-.17-.02,0-.04-.02-.04-.04,0-.03.02-.06.04-.09.07-.07.16-.14.23-.21,0,0,.03-.02.02-.04,0,0-.21.07-.22.08-.03.02-.34.14-.41.17-.28.11-.57.19-.86.3-.27.11-.54.24-.76.45-.05.05-.1.11-.12.18-.02.07.02.15.09.17-.47.15-.88.46-1.15.87-.06.1-.11.25,0,.31h0Z" style="fill: #e8a046; stroke-width: 0px;"/>
    <path d="m18.54,3.75s.08-.06.12-.1c-.04.03-.09.06-.12.1Z" style="fill: #e8a046; stroke-width: 0px;"/>
    <path d="m19.05,5.71c-.03.07-.06.14-.05.22,0,.07.06.15.14.16-.1.15-.24.64.12.57h0c-.03-.15-.09-.22-.04-.37.05-.14.24-.42.37-.48-.1.05-.19.17-.3.14-.07-.02-.11-.09-.12-.16,0-.07.02-.14.06-.2.09-.17.21-.32.36-.45-.23.12-.43.32-.54.56h0Z" style="fill: #e8a046; stroke-width: 0px;"/>
    <path d="m27.66,6.47c.2-.22.14-.57.07-.86.2-.09.32-.33.27-.54-.02-.08-.06-.17-.12-.23s-.14-.06-.19-.13v-.02h0s.08.02.11.03c.04,0,.09,0,.1-.04v-.05s0-.06-.02-.09c-.06-.22-.11-.42-.27-.6.05.06.11.12.17.17.02.02.04.04.06.05s.05.01.08,0c.03-.02.04-.06.05-.09,0-.07-.04-.13-.06-.19-.03-.08-.07-.16-.12-.23-.02-.03-.13-.22-.17-.21.04,0,.07,0,.1,0,.09.06.2.1.31.1h.04s.02-.02.03-.03c.04-.06.06-.14.06-.22,0-.21-.12-.36-.23-.53.11.11.29.13.45.14.1,0,.23-.02.24-.12,0-.04-.02-.07-.04-.1-.06-.09-.13-.17-.21-.24v.09s-.03.07-.06.1-.06.05-.1.05-.08,0-.12,0c-.13,0-.25-.04-.37-.09.09.05.18.12.22.21.03.07.1.16.1.24,0,.06-.04.11-.08.15-.03.03-.06.06-.11.07h-.1c-.13-.04-.12-.09-.18-.17-.03-.03-.07-.06-.11-.03,0,.18.07.36.18.5,0,0,.02.02.03.04.05.06.12.12.13.2,0,.04,0,.08-.05.09-.02,0-.03,0-.04-.02-.04-.03-.06-.08-.09-.13-.03-.04-.08-.08-.13-.06,0,.24.13.46.24.67.02.04.04.09.03.13-.04.11-.15-.05-.18.09-.03.13.06.23.14.32.08.1.16.2.17.33,0,.06-.02.12-.07.14-.03,0-.07,0-.1-.03-.03-.02-.04-.06-.06-.09-.07-.14-.12-.29-.14-.45-.02-.15-.09-.3-.12-.45-.06-.29-.05-.6-.04-.89,0-.29,0-.57.14-.83.14-.29.37-.46.64-.61.04-.02.1-.07.15-.08-.11,0-.21.03-.31.06-.38.12-.69.45-.78.83-.02.09-.03.18-.02.27h0c-.02.18-.03.35-.03.51,0,.27,0,.54.08.81s.2.52.27.79c.08.27.1.57-.04.81-.09.17-.7.43-.66.6.06.24.73.01.84-.11l.02-.04Z" style="fill: #e8a046; stroke-width: 0px;"/>
    <path d="m16.54,2.44c-.08-.04-.09-.17-.02-.2-.08.02-.15.05-.21.1-.07.05-.11.14-.08.22.04.11.17.14.29.14.31,0,.62-.14.83-.38,0,.02-.03.03-.04.05-.05.08-.07.18-.03.26.07.12.25.11.38.06.21-.07.42-.19.59-.33-.04.06-.09.12-.1.19,0,.07,0,.15.07.18.04.02.09.02.13,0,.24-.03.47-.15.63-.33-.14.06-.35.13-.47,0-.08-.07-.02-.22-.09-.29-.16-.18-.61.26-.91.08.05-.13.16-.23.28-.31h0c-.31.2-.64.38-.98.52-.09.04-.19.07-.27.03h0Z" style="fill: #e8a046; stroke-width: 0px;"/>
    <path d="m19.27,2.61s.06.02.09.02c.25,0,.5-.09.69-.25,0-.03.02-.06.04-.09.06-.1.17-.16.27-.21-.16.08-.32.15-.47.23-.11.05-.24.1-.34.04-.09-.06-.09-.21-.03-.3s.16-.15.26-.21c-.14.07-.29.15-.4.27-.11.12-.18.28-.14.44,0,.03.02.06.04.07h0Z" style="fill: #e8a046; stroke-width: 0px;"/>
    <path d="m20.7,2.29c.09.12.16.27.13.41s-.17.28-.32.24c-.03,0-.05-.02-.07-.05,0-.03,0-.05,0-.08.05-.11.14-.2.25-.26-.12.05-.24.08-.37.09-.08,0-.16,0-.22-.05s-.08-.13-.06-.21c-.08.08-.15.16-.21.24-.02.03-.04.07-.04.1,0,.1.14.12.24.12.16,0,.34-.03.45-.14-.07.11-.14.22-.2.32-.04.06-.07.12-.06.19.02.1.14.16.24.14s.19-.08.26-.15c.09-.07.17-.15.26-.21.06.1.05.23.13.32.07-.08.12-.2.13-.31,0-.09,0-.18-.02-.27-.09-.38-.4-.71-.78-.83-.1-.03-.21-.05-.31-.06.21.09.41.24.54.42l.02.03Z" style="fill: #e8a046; stroke-width: 0px;"/>
    <path d="m17.84,3.11c.05.06-.07.18-.02.27.06.09.2.08.29.06.27-.05.52-.17.74-.33-.22.11-.46.2-.71.25-.04,0-.08,0-.11,0-.03-.02-.04-.05-.04-.08-.02-.09-.02-.19,0-.28l-.79-.04c-.07.03-.12.08-.16.14,0,.02-.02.05,0,.07,0,.03.05.03.08.03.13,0,.65-.16.72-.09Z" style="fill: #e8a046; stroke-width: 0px;"/>
    <path d="m19.14,3.84c-.13.11-.29.18-.46.2-.05,0-.1,0-.15-.02-.07-.04-.08-.14-.04-.21,0-.02.03-.05.05-.07-.13.1-.28.17-.44.23-.14.05-.33.07-.41-.05-.06-.09-.03-.2.02-.28-.13.1-.17.3-.17.46,0,.07,0,.15.06.21.06.08.17.1.27.1.19,0,.38-.08.51-.21.07.11.23.15.36.13.05,0,.1-.03.15-.05.02-.01.05-.02.07-.03.02,0,.05,0,.07-.02-.09.04-.17.13-.24.2-.04.04-.08.09-.08.15,0,.07.05.13.11.17.19.12.48.08.62-.1-.12.03-.25.03-.37.01-.1-.02-.24-.06-.19-.19,0-.04.04-.07.06-.1.11-.12.24-.17.39-.23-.09.01-.18.01-.26,0-.04,0-.09-.03-.1-.07,0-.02,0-.04.02-.06.04-.06.09-.11.14-.16h0Z" style="fill: #e8a046; stroke-width: 0px;"/>
    <path d="m16.72,2.13c.28-.03.56-.09.83-.17.04,0,.09-.04.11-.07-.05,0-.1,0-.16,0-.08,0-.16-.04-.21-.1-.05-.06-.03-.18.04-.2-.26.05-.51.19-.68.39-.04.04-.07.11-.03.15.02.02.06.02.1.02h0Z" style="fill: #e8a046; stroke-width: 0px;"/>
    <path d="m30.08,2.77s.09,0,.13,0c.06-.03.09-.11.07-.18,0-.07-.06-.13-.1-.19.17.15.37.26.59.33.13.05.31.06.38-.06.05-.08.02-.18-.03-.26,0-.02-.02-.03-.04-.05.21.23.51.38.83.38.11,0,.25-.03.29-.14.03-.08-.02-.17-.08-.22s-.14-.07-.21-.1c.07.03.06.17-.02.2-.08.04-.19,0-.27-.03-.34-.14-.67-.32-.98-.52h0c.12.08.23.18.28.31-.3.18-.75-.26-.91-.08-.06.07,0,.22-.09.29-.12.12-.33.05-.47,0,.15.18.39.3.63.33h0Z" style="fill: #e8a046; stroke-width: 0px;"/>
    <path d="m28.89,2.38c-.1.07-.23.02-.34-.04-.16-.08-.32-.15-.47-.23.1.06.2.12.27.21.02.03.03.06.04.09.19.16.44.26.69.25.03,0,.07,0,.09-.02.02-.02.03-.05.04-.07.04-.15-.03-.32-.14-.44-.11-.12-.26-.19-.4-.27.1.05.2.11.26.21.06.1.06.24-.03.3h0Z" style="fill: #e8a046; stroke-width: 0px;"/>
    <path d="m31.25,2.97c-.08-.06-.17-.12-.25-.15.08.06.14.14.18.23-.15,0-.31,0-.45-.04-.08-.02-.26-.08-.29.02,0,.03,0,.07,0,.1,0,.06,0,.12,0,.18,0,.03-.02.06-.04.08-.03.02-.07,0-.11,0-.25-.05-.48-.14-.71-.25.22.16.47.28.74.33.09.02.23.03.29-.06s-.07-.21-.02-.27c.06-.07.59.09.72.09.03,0,.07,0,.08-.03,0-.02,0-.05,0-.07-.03-.06-.08-.12-.14-.17h0Z" style="fill: #e8a046; stroke-width: 0px;"/>
    <path d="m29.3,6.13c.08-.01.13-.09.14-.16,0-.07-.02-.15-.05-.22-.11-.24-.31-.43-.54-.56.15.12.28.27.36.45.03.06.06.13.06.2s-.05.14-.12.16c-.11.03-.2-.09-.3-.14.13.07.32.35.37.48.05.16,0,.23-.04.37-.03-.03-.06-.06-.09-.08-.07-.04-.15-.06-.21-.12h-.07c.06.03.09.1.1.16.03.11.09.22.15.31.02.03.05.07.09.07.08,0,.12-.09.1-.17,0-.06-.04-.12-.08-.17.13.02.2-.03.22-.12h0c.04-.14-.04-.36-.1-.46h.01Z" style="fill: #e8a046; stroke-width: 0px;"/>
    <path d="m29.37,4.17c-.09.01-.17.01-.26,0,.08.03.16.06.23.1.07.03.14.07.18.13.05.06.07.14.03.21-.04.06-.11.08-.18.09-.12.02-.25.01-.37-.01.14.18.43.23.62.1.06-.04.12-.1.11-.17,0-.06-.04-.11-.08-.15-.1-.1-.2-.19-.32-.27.11.07.23.14.37.17.13.02.29-.01.36-.13.14.13.32.21.51.21.1,0,.21-.02.27-.1.05-.06.06-.13.06-.21,0-.16-.04-.36-.17-.46.05.08.07.2.02.28-.08.12-.27.1-.41.05-.15-.06-.3-.14-.44-.23.02.02.04.04.05.07.04.07.03.17-.04.21-.04.03-.1.02-.15.02-.17-.02-.33-.1-.46-.2.05.05.1.1.14.16,0,.02.03.04.02.06,0,.04-.05.06-.1.07h.01Z" style="fill: #e8a046; stroke-width: 0px;"/>
    <path d="m29.89,3.79s-.08-.07-.12-.1c.04.03.08.07.12.1Z" style="fill: #e8a046; stroke-width: 0px;"/>
    <path d="m32.03,2.26s-.04.04-.06.03c.15.19.45.25.65.12.4.09.77.31,1.03.63.04.04.07.1.07.15s-.06.12-.12.09c.37.15.71.37.99.65.13.13.18.27.05.42.09.08.23.11.35.13.06,0,.12.01.17-.02.1-.07.05-.22,0-.31-.27-.41-.68-.72-1.15-.87.07-.02.1-.1.09-.17s-.07-.13-.12-.18c-.65-.61-1.75-.75-2.44-1.09.16.11.31.21.45.35.02.02.05.05.04.09v-.02Z" style="fill: #e8a046; stroke-width: 0px;"/>
    <path d="m22.09,4.51c-.11,0-.2-.09-.2-.2s.09-.2.2-.2.2.09.2.2-.09.2-.2.2Zm0-.29s-.09.04-.09.09.04.09.09.09.09-.04.09-.09-.04-.09-.09-.09Z" style="fill: #e8a046; stroke-width: 0px;"/>
  </g>
  <g>
    <path d="m58.26,17.61h-4.88v-2.81h13.22v2.81h-4.88v12.77h-3.45v-12.77h0Z" style="fill: #e8a046; stroke-width: 0px;"/>
    <path d="m68.41,14.8h3.45v15.58h-3.45v-15.58Z" style="fill: #e8a046; stroke-width: 0px;"/>
    <path d="m78.14,29.59c-1.17-.66-2.07-1.6-2.7-2.81-.63-1.21-.94-2.61-.94-4.2s.31-2.99.94-4.2c.63-1.21,1.53-2.14,2.7-2.8,1.17-.65,2.55-.98,4.12-.98,1.03,0,2.02.16,2.96.47s1.72.75,2.32,1.31l-1.11,2.45c-.68-.52-1.35-.89-2.02-1.13s-1.37-.35-2.09-.35c-1.38,0-2.45.44-3.19,1.33-.75.88-1.12,2.18-1.12,3.89s.37,3.01,1.12,3.9c.74.89,1.81,1.34,3.19,1.34.72,0,1.42-.12,2.09-.35s1.34-.61,2.02-1.13l1.11,2.45c-.6.56-1.38,1-2.32,1.31s-1.93.47-2.96.47c-1.58,0-2.95-.33-4.12-.99v.02Z" style="fill: #e8a046; stroke-width: 0px;"/>
  </g>
</svg>